<svg width="78" height="78" viewBox="0 0 78 78" fill="none" xmlns="http://www.w3.org/2000/svg">
<g filter="url(#filter0_d_26_921)">
<path d="M39 67.8125C57.1218 67.8125 71.8125 53.1218 71.8125 35C71.8125 16.8782 57.1218 2.1875 39 2.1875C20.8782 2.1875 6.1875 16.8782 6.1875 35C6.1875 53.1218 20.8782 67.8125 39 67.8125Z" fill="#A9A7F3"/>
<path d="M39 63.0273C54.4791 63.0273 67.0273 50.4791 67.0273 35C67.0273 19.5209 54.4791 6.97266 39 6.97266C23.5209 6.97266 10.9727 19.5209 10.9727 35C10.9727 50.4791 23.5209 63.0273 39 63.0273Z" fill="#A9A7F3"/>
<path d="M51.239 34.1898V53.7857H27.6234C27.6234 53.6549 27.6221 34.0775 27.6256 33.9471C27.6965 31.2164 28.9297 28.7779 30.8482 27.1064C32.5004 25.667 34.6552 24.7969 37.0164 24.7969H41.8461C44.2093 24.7969 46.3642 25.667 48.0164 27.1086C49.9908 28.8295 51.239 31.3625 51.239 34.1898Z" fill="#B76C6C"/>
<path d="M51.2391 34.1898V53.7857H48.0164V27.1086C49.9908 28.8295 51.2391 31.3625 51.2391 34.1898Z" fill="#965959"/>
<path d="M62.1652 34.4019C58.6086 46.4035 58.7947 45.8213 58.7092 45.9934C58.0816 47.2545 56.3154 47.3871 55.5063 46.2353C55.398 46.081 56.0131 47.3832 46.0345 25.7938L60.9979 31.9099C62.0391 32.2414 62.5768 33.3898 62.1652 34.4019Z" fill="#B76C6C"/>
<path d="M47.2281 61.9805H31.6417C31.0485 61.9805 30.5674 61.4995 30.5674 60.9063V59.7556C30.5674 59.1624 31.0485 58.6814 31.6417 58.6814H47.2284C47.8215 58.6814 48.3026 59.1624 48.3026 59.7556V60.9063C48.3024 61.4997 47.8213 61.9805 47.2281 61.9805Z" fill="#FF4A73"/>
<path d="M34.8652 61.9799H31.6425C31.0474 61.9799 30.5683 61.4986 30.5683 60.9056V59.7562C30.5683 59.1633 31.0474 58.682 31.6425 58.682H34.8652C34.2701 58.682 33.791 59.1633 33.791 59.7562V60.9056C33.791 61.4986 34.2701 61.9799 34.8652 61.9799Z" fill="#F973A3"/>
<path d="M48.3015 59.7562V60.9056C48.3015 61.4986 47.8224 61.9799 47.2273 61.9799H44.0046C44.5998 61.9799 45.0789 61.4986 45.0789 60.9056V59.7562C45.0789 59.1633 44.5998 58.682 44.0046 58.682H47.2273C47.8224 58.682 48.3015 59.1633 48.3015 59.7562Z" fill="#EA2A6A"/>
<path d="M30.8482 27.1064V53.7857H27.6255V33.9471C27.6964 31.2164 28.9297 28.7779 30.8482 27.1064Z" fill="#C98585"/>
<path d="M47.6985 58.6814H31.1641C28.1601 58.6814 25.7251 56.2463 25.7251 53.2424C25.7251 45.0717 32.1296 39.2915 39.4313 39.2915C47.0009 39.2915 53.1374 45.4279 53.1374 52.9977C53.1374 56.4928 50.5342 58.6814 47.6985 58.6814Z" fill="#FFBB98"/>
<path d="M53.1402 52.9968C53.1402 56.4917 50.5369 58.6816 47.7004 58.6816H44.4777C47.4812 58.6816 49.9175 56.2453 49.9175 53.2417C49.9175 49.1988 48.4338 45.8369 45.9021 43.3052C43.7795 41.1826 40.9629 39.7538 37.8218 39.3865C38.3504 39.3242 38.8875 39.2919 39.4332 39.2919C43.2187 39.2919 46.6455 40.8259 49.1248 43.3052C51.6062 45.7867 53.1402 49.2113 53.1402 52.9968Z" fill="#FFAA80"/>
<path d="M34.3921 58.682H31.1694C28.1659 58.682 25.7318 56.2457 25.7318 53.2422C25.7318 45.0723 32.1354 39.2924 39.4366 39.2924C39.9823 39.2924 40.5194 39.3246 41.048 39.3869C34.5174 40.1513 28.9544 45.6066 28.9544 53.2422C28.9544 56.2457 31.3886 58.682 34.3921 58.682Z" fill="#FFCAA6"/>
<path d="M40.1493 50.9397C36.6168 50.9397 34.9849 49.0134 34.9849 46.6428C34.9849 44.5511 35.8848 43.7684 37.1333 43.7684H42.2977C44.8571 43.7684 44.4462 46.9208 44.4462 46.6428C44.4462 49.016 42.5224 50.9397 40.1493 50.9397Z" fill="#B76C6C"/>
<path d="M41.3277 50.7736C40.9538 50.8811 40.5585 50.9391 40.1503 50.9391C36.6164 50.9391 34.9855 49.0136 34.9855 46.6422C34.9855 44.5526 35.8824 43.7676 37.1339 43.7676H40.3566C39.1219 43.7676 38.2081 44.5352 38.2081 46.6422C38.2081 48.608 39.5273 50.2645 41.3277 50.7736Z" fill="#C98585"/>
<path d="M16.8348 34.3718C20.3914 46.3734 20.2053 45.7912 20.291 45.9632C20.9186 47.2244 22.6846 47.3569 23.4939 46.2052C23.6022 46.0509 22.9871 47.3533 32.9657 25.7634L18.0023 31.8798C16.9609 32.2113 16.4232 33.3597 16.8348 34.3718Z" fill="#B76C6C"/>
<path d="M53.0631 17.2924V26.3824C53.0631 28.4364 46.9594 30.1014 39.4291 30.1014C35.2547 30.1014 31.5164 29.5901 29.0156 28.7823C27.0047 28.1356 25.793 27.2977 25.793 26.3824V16.983L29.0156 17.0196L53.0631 17.2924Z" fill="#87828E"/>
<path d="M57.0383 15.4329L39.6358 22.4029L21.8184 15.4329L39.6358 9.01941L57.0383 15.4329Z" fill="#A4A4A5"/>
<path d="M28.8257 41.0659H28.7103C27.7549 41.0659 26.9806 40.2914 26.9806 39.3362V34.9541C26.9806 33.9987 27.7551 33.2244 28.7103 33.2244H28.8257C29.7811 33.2244 30.5554 33.9989 30.5554 34.9541V39.3362C30.5554 40.2917 29.7811 41.0659 28.8257 41.0659Z" fill="#F9D335"/>
<path d="M29.0156 17.0196V28.7823C27.0047 28.1356 25.793 27.2977 25.793 26.3824V16.983L29.0156 17.0196Z" fill="#A4A4A5"/>
<path d="M53.0631 17.866V26.3824C53.0631 28.4363 46.9594 30.1014 39.4291 30.1014C38.8834 30.1014 38.3463 30.0928 37.8177 30.0756C44.5896 29.8586 49.8404 28.2881 49.8404 26.3824V17.866H53.0631Z" fill="#796E84"/>
<path d="M32.4018 33.2111C32.5786 33.045 34.191 31.6348 36.3004 33.2689C36.6766 33.56 37.216 33.4904 37.5061 33.1159C37.7968 32.7408 37.7282 32.2009 37.3531 31.9102C34.6794 29.8389 32.1655 31.0454 31.2096 31.9727C30.4044 32.7541 31.5762 33.9858 32.4018 33.2111Z" fill="#5F266D"/>
<path d="M34.2035 37.1129C35.0489 37.1129 35.7343 36.4275 35.7343 35.5821C35.7343 34.7367 35.0489 34.0513 34.2035 34.0513C33.3581 34.0513 32.6727 34.7367 32.6727 35.5821C32.6727 36.4275 33.3581 37.1129 34.2035 37.1129Z" fill="#5F266D"/>
<path d="M42.6339 33.2063C42.7029 33.1393 44.3523 31.5832 46.528 33.2689C47.4284 33.9656 48.4751 32.6033 47.5807 31.9102C44.907 29.8389 42.3929 31.0454 41.4371 31.9727C41.0963 32.3031 41.0881 32.8471 41.4186 33.1879C41.749 33.5286 42.2932 33.5366 42.6339 33.2063Z" fill="#5F266D"/>
<path d="M44.4309 37.1129C45.2763 37.1129 45.9617 36.4275 45.9617 35.5821C45.9617 34.7367 45.2763 34.0513 44.4309 34.0513C43.5855 34.0513 42.9001 34.7367 42.9001 35.5821C42.9001 36.4275 43.5855 37.1129 44.4309 37.1129Z" fill="#5F266D"/>
<path d="M61.2938 31.0856L53.3364 27.8329C53.7255 27.3914 53.9223 26.9123 53.9223 26.3992V17.6235L57.3576 16.2477C58.0868 15.9555 58.0718 14.915 57.3353 14.6434L39.9329 8.22968C39.7432 8.15986 39.5348 8.15878 39.3449 8.22753L21.5275 14.641C20.7828 14.909 20.7678 15.9615 21.5053 16.25L24.9336 17.5911V26.3992C24.9336 26.9209 25.1364 27.4075 25.538 27.8548L17.7069 31.0553C16.2243 31.549 15.4605 33.1838 16.0208 34.6355C19.6347 46.8242 19.4029 46.0972 19.5215 46.3286C20.5285 48.3539 23.4671 48.3389 24.4227 46.2807L26.7641 41.2149V45.8046C25.3917 48.2175 24.8657 50.639 24.8657 53.2257C24.8657 56.2107 26.9538 58.7156 29.7457 59.361C29.6971 59.6053 29.7081 59.639 29.7081 60.8896C29.7081 61.9557 30.5754 62.8232 31.6417 62.8232H47.2282C48.2944 62.8232 49.1618 61.9557 49.1618 60.8896V59.7389C49.1618 59.6089 49.1484 59.4822 49.1239 59.3595C51.7738 58.7437 53.9968 56.4297 53.9968 52.981C53.9968 50.3728 53.3042 47.9246 52.0985 45.8046V40.9461L54.5786 46.3131C55.6266 48.5623 58.9369 48.3058 59.6362 45.941L62.9794 34.6658C63.54 33.2132 62.7747 31.5811 61.2938 31.0856ZM24.2629 15.4832L39.6321 9.9508L54.6437 15.483L39.6319 21.4954L31.4243 18.2846L39.7359 15.9632C40.1931 15.8356 40.4601 15.3614 40.3323 14.9042C40.2045 14.4473 39.732 14.18 39.2734 14.3078L28.7626 17.2435L26.1458 16.2197C26.129 16.2122 26.1118 16.2062 26.0944 16.1997L24.2629 15.4832ZM29.696 34.9709V39.353C29.696 40.4932 27.8398 40.5291 27.8398 39.353C27.8398 37.7724 27.8398 36.626 27.8398 34.9709C27.84 33.7937 29.696 33.8324 29.696 34.9709ZM27.8705 27.4232C27.5218 27.2507 26.6524 26.7658 26.6524 26.3992V18.2635L27.8705 18.7401V27.4232ZM29.5893 31.0038V29.8647C29.7433 29.9066 29.8995 29.9474 30.0594 29.9869L29.5893 31.0038ZM28.4828 41.9307C28.558 41.9374 28.6336 41.9423 28.7106 41.9423H28.8257C30.2536 41.9423 31.415 40.7809 31.415 39.3532V34.9711C31.415 34.2024 31.0764 33.5127 30.5425 33.0381L31.7861 30.3491C36.4847 31.1958 42.5274 31.1875 47.1919 30.3281L50.3799 37.2269V43.3906C47.7083 40.3445 43.7919 38.4159 39.4315 38.4159C35.071 38.4159 31.1546 40.3445 28.483 43.3906V41.9307H28.4828ZM29.5893 28.0776V19.4123L39.3228 23.22C39.5267 23.2997 39.752 23.2988 39.9553 23.2174L52.2037 18.3117V26.3992C52.2037 26.7365 51.1641 27.7588 47.515 28.5163C42.0854 29.6457 34.2555 29.4764 29.5893 28.0776ZM26.1213 34.9709V38.5093L22.8634 45.5575C22.487 46.3696 21.2671 46.2772 21.0119 45.4221C20.9938 45.3613 17.6545 34.0906 17.6306 34.032C17.4083 33.4839 17.6975 32.8615 18.2629 32.6819C18.316 32.6649 27.1725 29.0437 27.2243 29.0227C27.4273 29.1194 27.6424 29.2133 27.8707 29.3039V32.5242C26.8543 32.874 26.1213 33.8373 26.1213 34.9709ZM47.443 60.8896C47.443 61.008 47.3468 61.1044 47.2282 61.1044H31.6417C31.5231 61.1044 31.4268 61.008 31.4268 60.8896V59.7389C31.4268 59.6205 31.5231 59.5241 31.6417 59.5241H47.2282C47.5163 59.5241 47.443 59.7864 47.443 60.8896ZM52.2781 52.981C52.2781 56.0195 50.0334 57.8053 47.6987 57.8053C46.9031 57.8053 31.9764 57.8053 31.1643 57.8053C28.8156 57.8053 26.5847 56.0114 26.5847 52.981C26.5847 45.8974 32.3477 40.1344 39.4315 40.1344C46.5153 40.1344 52.2781 45.8974 52.2781 52.981ZM61.3696 34.0621C61.3378 34.1405 57.9703 45.5326 57.9398 45.5932C57.5718 46.3326 56.4823 46.3354 56.1375 45.5895L48.914 29.9583C49.8269 29.7274 50.8135 29.4169 51.6649 29.0066C51.7137 29.0266 60.6853 32.6954 60.7354 32.7113C61.3024 32.8925 61.5922 33.5136 61.3696 34.0621Z" fill="#5F266D"/>
<path d="M46.8883 50.2398C46.4137 50.2398 46.0289 50.6246 46.0289 51.0991C46.0289 52.6664 44.7536 53.9417 43.1865 53.9417C41.8521 53.9417 40.7328 53.0164 40.4284 51.7746C43.1423 51.6292 45.3057 49.3757 45.3057 46.6261V45.9001C45.3057 44.2416 43.9565 42.8923 42.2979 42.8923H37.1333C35.4747 42.8923 34.1255 44.2416 34.1255 45.9001V46.6261C34.1255 49.1928 36.0107 51.3269 38.4692 51.7177C38.1858 52.9883 37.0512 53.9417 35.6964 53.9417C34.1289 53.9417 32.8538 52.6664 32.8538 51.0991C32.8538 50.6246 32.469 50.2398 31.9944 50.2398C31.5199 50.2398 31.1351 50.6246 31.1351 51.0991C31.1351 55.5408 36.8907 57.3631 39.4416 53.6962C41.9918 57.3623 47.7479 55.5449 47.7479 51.0991C47.7476 50.6246 47.3629 50.2398 46.8883 50.2398ZM39.2815 50.0636C37.3862 50.0636 35.844 48.5215 35.844 46.6261V45.9001C35.844 45.1892 36.4222 44.6111 37.1331 44.6111H42.2977C43.0086 44.6111 43.5868 45.1892 43.5868 45.9001V46.6261C43.5868 48.5215 42.0446 50.0636 40.1493 50.0636H39.2815Z" fill="#5F266D"/>
<path d="M50.3395 23.3289C49.8649 23.3289 49.4801 23.7137 49.4801 24.1883V25.1875C49.4801 25.1929 49.4791 25.1989 49.4767 25.2043C49.3037 25.2627 48.9129 25.3925 48.4214 25.5392C47.9668 25.675 47.7081 26.1537 47.8439 26.6085C47.9554 26.9813 48.2968 27.2223 48.6669 27.2223C48.7484 27.2223 48.8313 27.2107 48.9132 27.1862C49.0872 27.1342 50.0866 26.8298 50.2484 26.7475C50.8347 26.4469 51.1989 25.8493 51.1989 25.1875V24.1883C51.1989 23.7137 50.8141 23.3289 50.3395 23.3289Z" fill="#5F266D"/>
<path d="M45.4499 26.1964C45.3077 26.208 45.1827 26.2127 45.0701 26.2084C44.6002 26.1938 44.1978 26.5627 44.1811 27.0373C44.1647 27.5117 44.5356 27.9096 45.0099 27.9261C45.0559 27.9276 45.1025 27.9285 45.1502 27.9285C45.2862 27.9285 45.4338 27.922 45.5894 27.9094C46.0624 27.8707 46.4146 27.456 46.3759 26.9829C46.3379 26.5101 45.9213 26.1599 45.4499 26.1964Z" fill="#5F266D"/>
<rect x="4.5" y="0.5" width="69" height="69" rx="34.5" stroke="#2359A9" shape-rendering="crispEdges"/>
</g>
<defs>
<filter id="filter0_d_26_921" x="0" y="0" width="78" height="78" filterUnits="userSpaceOnUse" color-interpolation-filters="sRGB">
<feFlood flood-opacity="0" result="BackgroundImageFix"/>
<feColorMatrix in="SourceAlpha" type="matrix" values="0 0 0 0 0 0 0 0 0 0 0 0 0 0 0 0 0 0 127 0" result="hardAlpha"/>
<feOffset dy="4"/>
<feGaussianBlur stdDeviation="2"/>
<feComposite in2="hardAlpha" operator="out"/>
<feColorMatrix type="matrix" values="0 0 0 0 0 0 0 0 0 0 0 0 0 0 0 0 0 0 0.25 0"/>
<feBlend mode="normal" in2="BackgroundImageFix" result="effect1_dropShadow_26_921"/>
<feBlend mode="normal" in="SourceGraphic" in2="effect1_dropShadow_26_921" result="shape"/>
</filter>
</defs>
</svg>
