<svg width="71" height="71" viewBox="0 0 71 71" fill="none" xmlns="http://www.w3.org/2000/svg">
<path d="M35.7323 68.0129C53.8541 68.0129 68.5448 53.3223 68.5448 35.2004C68.5448 17.0786 53.8541 2.38794 35.7323 2.38794C17.6104 2.38794 2.91977 17.0786 2.91977 35.2004C2.91977 53.3223 17.6104 68.0129 35.7323 68.0129Z" fill="#A9A7F3"/>
<path d="M35.7323 63.2278C51.2113 63.2278 63.7596 50.6795 63.7596 35.2004C63.7596 19.7214 51.2113 7.1731 35.7323 7.1731C20.2532 7.1731 7.70493 19.7214 7.70493 35.2004C7.70493 50.6795 20.2532 63.2278 35.7323 63.2278Z" fill="#A9A7F3"/>
<path d="M58.3707 41.4491C58.3707 41.3979 58.3644 41.3487 58.3557 41.3003C58.3521 41.2798 58.3477 41.2598 58.3428 41.2396C58.3371 41.2175 58.33 41.1959 58.3226 41.1743C58.2069 40.8254 57.8815 40.5719 57.4938 40.5719H41.9273C41.5393 40.5719 41.2139 40.8256 41.0982 41.1748C41.0908 41.1961 41.0837 41.2175 41.0782 41.2393C41.0733 41.2596 41.0687 41.2795 41.0651 41.3C41.0564 41.3484 41.0501 41.3977 41.0501 41.4488C41.0501 41.9333 41.4427 42.326 41.9273 42.326H45.7229V43.5991C45.7229 45.1268 46.5749 46.459 47.8286 47.1464C47.1901 48.1048 46.1029 48.7392 44.867 48.7392H42.4247C42.1545 45.7628 39.9448 43.3467 37.0688 42.7665V40.1699V39.1727C37.3198 39.1322 37.5673 39.0816 37.8104 39.0193C38.0759 38.9509 38.3365 38.8697 38.5911 38.7765C38.8456 38.6832 39.0945 38.578 39.337 38.4612C39.7865 38.2447 40.2125 37.9871 40.6126 37.6964C40.766 37.5848 40.9158 37.4692 41.0613 37.3478C42.8848 35.8231 44.0459 33.532 44.0461 30.969V31.5616C44.4388 31.5616 44.8082 31.4626 45.1311 31.2884C45.1336 31.287 45.1361 31.2862 45.1385 31.2848C45.3275 31.1823 45.4997 31.0532 45.6518 30.9037C45.6564 30.899 45.6619 30.8949 45.6665 30.8903C45.7904 30.7664 45.8984 30.6267 45.9914 30.4768C46.0338 30.4088 46.0723 30.3382 46.1076 30.2655C46.1448 30.1886 46.1779 30.1096 46.2066 30.0281C46.29 29.7902 46.3378 29.5359 46.3378 29.2696V27.0151C46.3378 27.0028 46.3362 26.9911 46.3359 26.979C46.3348 26.9219 46.3323 26.8647 46.3274 26.8084C46.2227 25.6397 45.2419 24.7232 44.0461 24.7232V24.5099C44.0461 20.5973 41.3424 17.3177 37.7018 16.4331C37.6955 16.4314 37.689 16.4301 37.6824 16.4287C37.5657 16.4005 37.4484 16.3746 37.3297 16.3513C37.3043 16.3464 37.2786 16.3423 37.2531 16.3377C37.1514 16.3188 37.0491 16.3007 36.9461 16.2854C36.8998 16.2786 36.8531 16.2737 36.8069 16.2677C36.7218 16.2567 36.6371 16.2452 36.5515 16.2368C36.4809 16.2296 36.4093 16.2255 36.3382 16.2206C36.2742 16.216 36.2108 16.21 36.1463 16.2067C36.0139 16.2001 35.8807 16.1968 35.747 16.1966C35.7421 16.1966 35.7372 16.1963 35.7325 16.1963C35.7282 16.1963 35.7241 16.1966 35.7197 16.1966C35.5852 16.1968 35.4514 16.2001 35.3186 16.2067C35.2548 16.2097 35.1917 16.216 35.1282 16.2204C35.0566 16.2255 34.9844 16.2296 34.9133 16.2368C34.828 16.2452 34.7438 16.2567 34.6593 16.2674C34.6123 16.2734 34.5652 16.2783 34.5185 16.2852C34.4159 16.3002 34.3142 16.3182 34.2128 16.3371C34.1868 16.342 34.1608 16.3459 34.1351 16.3511C34.017 16.374 33.9 16.4003 33.7835 16.4282C33.7766 16.4298 33.7698 16.4312 33.763 16.4328C30.2531 17.2859 27.6145 20.3646 27.4296 24.091C27.4228 24.2296 27.4189 24.3693 27.4189 24.5096V24.7229C26.1972 24.7229 25.2016 25.6796 25.1338 26.8841C25.1311 26.9276 25.1273 26.9705 25.1273 27.0148V29.2696C25.1273 30.219 25.7045 31.0333 26.527 31.3814C26.8013 31.4973 27.1026 31.5616 27.4189 31.5616V30.9677C27.4189 31.1112 27.4225 31.2537 27.4299 31.3956C27.4586 31.9624 27.5442 32.5142 27.6809 33.0455C27.7151 33.1784 27.7525 33.3099 27.793 33.4401C27.9954 34.0909 28.2756 34.7075 28.6229 35.2787C28.6923 35.393 28.7645 35.5054 28.8392 35.6161C29.4366 36.5007 30.2001 37.2641 31.0846 37.8616C31.1951 37.9362 31.3078 38.0084 31.4221 38.0779C31.9933 38.4251 32.6099 38.7051 33.2607 38.9077C33.3908 38.9482 33.5223 38.9857 33.6552 39.0198C33.898 39.0825 34.1458 39.1328 34.3965 39.1732V40.1705V42.767C31.5205 43.3473 29.3111 45.7634 29.0407 48.7397H26.5984C25.3624 48.7397 24.2755 48.1054 23.6368 47.147C24.8905 46.4593 25.7425 45.1273 25.7425 43.5996V42.3265H29.5381C30.0226 42.3265 30.4153 41.9339 30.4153 41.4493C30.4153 41.3982 30.409 41.349 30.4002 41.3006C30.3967 41.2801 30.3923 41.2598 30.3871 41.2399C30.3814 41.218 30.3743 41.1967 30.3671 41.1754C30.2515 40.8262 29.9261 40.5724 29.5381 40.5724H13.9713C13.5836 40.5724 13.2582 40.8259 13.1425 41.1748C13.1351 41.1964 13.128 41.2177 13.1223 41.2402C13.1173 41.2601 13.113 41.2801 13.1094 41.3009C13.1007 41.3493 13.0944 41.3985 13.0944 41.4496C13.0944 41.9341 13.487 42.3268 13.9716 42.3268H17.6561V43.5999C17.6561 45.5323 19.0195 47.1502 20.8343 47.5478C21.7692 49.813 23.9996 51.4123 26.5986 51.4123H29.0117V53.509V55.4832C29.0117 55.4923 29.0117 55.5013 29.0117 55.5103C29.0161 56.5641 29.6838 57.4561 30.6105 57.8364C30.6876 57.8682 30.7666 57.8963 30.8473 57.9207C31.089 57.9937 31.3447 58.033 31.6083 58.033H32.6821H38.7841H39.8579C40.1215 58.033 40.3771 57.9937 40.6189 57.9207C40.6995 57.8963 40.7786 57.8682 40.8557 57.8364C41.7823 57.4564 42.4501 56.5644 42.4545 55.5103C42.4545 55.5013 42.4545 55.4923 42.4545 55.4832V53.509V51.4123H44.8675C47.4666 51.4123 49.697 49.813 50.6319 47.5478C52.4467 47.1502 53.81 45.5323 53.81 43.5999V42.3268H57.4946C57.978 42.3263 58.3707 41.9336 58.3707 41.4491ZM23.0702 42.3263V43.5994C23.0702 44.3554 22.455 44.9704 21.6986 44.9704C20.9426 44.9704 20.3273 44.3554 20.3273 43.5994V42.3263H23.0702ZM51.1369 42.3263V43.5994C51.1369 44.3554 50.5217 44.9704 49.7656 44.9704C49.0093 44.9704 48.3941 44.3554 48.3941 43.5994V42.3263H51.1369Z" fill="#A9A7F3"/>
<path d="M50.2729 39.263C50.3934 39.2736 50.5148 39.2816 50.6382 39.2816C50.922 39.2816 51.1993 39.2529 51.4672 39.1976C51.7352 39.1424 51.9936 39.0617 52.24 38.9573C52.6094 38.8009 52.9515 38.5917 53.2566 38.3399C53.46 38.172 53.6473 37.9847 53.8152 37.7812C54.1513 37.3743 54.4108 36.9018 54.5713 36.3864C54.6919 35.9998 54.7567 35.5888 54.7567 35.1631C54.7567 34.839 54.7184 34.5218 54.6462 34.2161C54.5738 33.9104 54.4668 33.6165 54.3296 33.3392C54.2839 33.2468 54.2347 33.156 54.1822 33.0674C53.7627 32.3587 53.1349 31.7801 52.3707 31.4254C52.2752 31.3811 52.1773 31.3401 52.0778 31.3029V24.2734C52.0778 24.1681 52.0431 24.0659 51.9794 23.9822L51.0193 22.7258C50.9739 22.6664 50.9163 22.6194 50.8509 22.5871C50.7856 22.5549 50.7131 22.5374 50.6384 22.5374C50.6024 22.5374 50.5671 22.5417 50.5326 22.5497C50.5045 22.5559 50.4782 22.5666 50.4517 22.5778C50.4465 22.58 50.4407 22.5811 50.4358 22.5836C50.3735 22.6125 50.3185 22.6558 50.2731 22.7093C50.2731 22.7093 50.2731 22.7093 50.2729 22.7096C50.2679 22.7154 50.2616 22.7197 50.257 22.726L49.297 23.9825C49.233 24.0661 49.1985 24.1684 49.1985 24.2737V31.3032C47.6041 31.8977 46.5194 33.4355 46.5194 35.1633C46.5197 37.3106 48.1726 39.0773 50.2729 39.263ZM51.5914 35.9391C52.0125 35.9391 52.3537 36.2803 52.3537 36.7014C52.3537 37.1225 52.0125 37.4638 51.5914 37.4638H49.6852C49.2641 37.4638 48.9229 37.1225 48.9229 36.7014C48.9229 36.4198 49.0774 36.1764 49.3046 36.0443C49.417 35.979 49.5461 35.9388 49.6852 35.9388H51.5914V35.9391Z" fill="#A9A7F3"/>
<path d="M15.7724 39.0429H23.3412C23.7563 39.0429 24.0929 38.7604 24.0929 38.412V33.2036V32.6718V32.068V31.5365C24.0929 31.1881 23.7563 30.9056 23.3412 30.9056H21.1914L20.5259 29.9005C20.3782 29.6773 20.1283 29.5431 19.8609 29.5431H15.7724C15.3573 29.5431 15.0207 29.8256 15.0207 30.1739V30.7057V30.9056V31.4375V31.549V32.0809V32.6846C15.0207 32.6846 15.0207 32.6846 15.0207 32.6849V33.2167V38.4126C15.0207 38.7604 15.3573 39.0429 15.7724 39.0429Z" fill="#A9A7F3"/>
<path d="M48.3678 43.9106C48.0618 45.5666 46.6096 46.8255 44.8665 46.8255H41.9713V49.4978H44.8665C48.0859 49.4978 50.7424 47.0453 51.0677 43.9106H48.3678Z" fill="#D1D3D4"/>
<path d="M48.3678 43.9106C48.0618 45.5666 46.6096 46.8255 44.8665 46.8255H41.9713V48.1615H44.8665C47.352 48.1615 49.4 46.3092 49.7178 43.9106H48.3678Z" fill="white"/>
<path d="M49.7659 45.7287C47.5363 45.7287 45.7226 43.9147 45.7226 41.6854V40.4122H48.3946V41.6854C48.3946 42.4414 49.0099 43.0566 49.7662 43.0566C50.5222 43.0566 51.1375 42.4417 51.1375 41.6854V40.4122H53.8095V41.6854C53.809 43.9147 51.9952 45.7287 49.7659 45.7287Z" fill="white"/>
<path d="M51.1369 41.6854C51.1369 42.4414 50.5217 43.0566 49.7656 43.0566C49.0093 43.0566 48.3941 42.4417 48.3941 41.6854V40.4122H47.0581V41.6854C47.0581 43.1805 48.2702 44.3927 49.7654 44.3927C51.2605 44.3927 52.4727 43.1805 52.4727 41.6854V40.4122H51.1366V41.6854H51.1369Z" fill="#D1D3D4"/>
<path d="M57.4935 38.6578H41.9267C41.4422 38.6578 41.0495 39.0505 41.0495 39.535C41.0495 40.0196 41.4422 40.4122 41.9267 40.4122H57.4935C57.9781 40.4122 58.3707 40.0196 58.3707 39.535C58.3707 39.0505 57.9781 38.6578 57.4935 38.6578Z" fill="#EF5A9D"/>
<path d="M57.4935 39.535H41.9267C41.603 39.535 41.3233 39.3576 41.1712 39.0964C41.0958 39.2258 41.0495 39.3745 41.0495 39.535C41.0495 40.0196 41.4422 40.4122 41.9267 40.4122H57.4935C57.9781 40.4122 58.3707 40.0196 58.3707 39.535C58.3707 39.3745 58.3245 39.226 58.249 39.0964C58.097 39.3576 57.8173 39.535 57.4935 39.535Z" fill="#E43D91"/>
<path d="M23.0967 43.9106C23.4027 45.5666 24.8549 46.8255 26.5981 46.8255H29.4932V49.4978H26.5981C23.3786 49.4978 20.7222 47.0453 20.3968 43.9106H23.0967Z" fill="#D1D3D4"/>
<path d="M23.0967 43.9106C23.4027 45.5666 24.8549 46.8255 26.5981 46.8255H29.4932V48.1615H26.5981C24.1125 48.1615 22.0645 46.3092 21.7465 43.9106H23.0967Z" fill="white"/>
<path d="M21.6986 45.7287C23.9282 45.7287 25.742 43.9147 25.742 41.6854V40.4122H23.0699V41.6854C23.0699 42.4414 22.4547 43.0566 21.6984 43.0566C20.9423 43.0566 20.3271 42.4417 20.3271 41.6854V40.4122H17.655V41.6854C17.6556 43.9147 19.4693 45.7287 21.6986 45.7287Z" fill="white"/>
<path d="M20.3276 41.6854C20.3276 42.4414 20.9429 43.0566 21.6989 43.0566C22.4552 43.0566 23.0705 42.4417 23.0705 41.6854V40.4122H24.4065V41.6854C24.4065 43.1805 23.1943 44.3927 21.6992 44.3927C20.204 44.3927 18.9919 43.1805 18.9919 41.6854V40.4122H20.3279V41.6854H20.3276Z" fill="#D1D3D4"/>
<path d="M13.971 38.6578H29.5378C30.0223 38.6578 30.415 39.0505 30.415 39.535C30.415 40.0196 30.0223 40.4122 29.5378 40.4122H13.971C13.4865 40.4122 13.0938 40.0196 13.0938 39.535C13.0938 39.0505 13.4865 38.6578 13.971 38.6578Z" fill="#EF5A9D"/>
<path d="M13.971 39.535H29.5378C29.8616 39.535 30.1413 39.3576 30.2933 39.0964C30.3688 39.2258 30.415 39.3745 30.415 39.535C30.415 40.0196 30.0223 40.4122 29.5378 40.4122H13.971C13.4865 40.4122 13.0938 40.0196 13.0938 39.535C13.0938 39.3745 13.14 39.226 13.2155 39.0964C13.3675 39.3576 13.6473 39.535 13.971 39.535Z" fill="#E43D91"/>
<path d="M37.0686 35.7936H34.396V41.4365H37.0686V35.7936Z" fill="#E6E7E8"/>
<path d="M37.0686 35.7936H34.396V38.2562H37.0686V35.7936Z" fill="#BCBEC0"/>
<path d="M35.7323 37.3674C31.1407 37.3674 27.4187 33.6454 27.4187 29.0538V22.5961C27.4187 18.0045 31.141 14.2825 35.7323 14.2825C40.3236 14.2825 44.0459 18.0045 44.0459 22.5961V29.0538C44.0459 33.6451 40.3238 37.3674 35.7323 37.3674Z" fill="white"/>
<path d="M35.7323 30.0722C31.2813 30.0722 27.6475 26.5744 27.4293 22.1775C27.4225 22.3161 27.4187 22.4556 27.4187 22.5961V29.0539C27.4187 33.6455 31.1407 37.3675 35.7323 37.3675C40.3236 37.3675 44.0459 33.6455 44.0459 29.0539V22.5961C44.0459 22.4556 44.0423 22.3161 44.0352 22.1775C43.817 26.5744 40.1833 30.0722 35.7323 30.0722Z" fill="#E6E7E8"/>
<path d="M35.7323 14.2825C33.5645 14.2825 31.5968 15.1192 30.117 16.4782C29.9436 17.033 29.8498 17.6231 29.8498 18.235V28.5898C29.8498 31.8388 32.4836 34.4723 35.7323 34.4723C38.9813 34.4723 41.6147 31.8385 41.6147 28.5898V18.2353C41.6147 17.6233 41.5209 17.0333 41.3476 16.4784C39.8677 15.1192 37.9001 14.2825 35.7323 14.2825Z" fill="#27C1E6"/>
<path d="M35.7323 25.8248C32.4833 25.8248 29.8498 23.1911 29.8498 19.9424V28.5898C29.8498 31.8388 32.4836 34.4723 35.7323 34.4723C38.9813 34.4723 41.6147 31.8386 41.6147 28.5898V19.9424C41.6147 23.1911 38.9813 25.8248 35.7323 25.8248Z" fill="#1CAEE4"/>
<path d="M27.4187 29.6477V22.8093C26.1529 22.8093 25.127 23.8355 25.127 25.101V27.3558C25.127 28.6215 26.1529 29.6477 27.4187 29.6477Z" fill="white"/>
<path d="M25.1374 24.8945C25.1314 24.9629 25.127 25.0315 25.127 25.1013V27.356C25.127 28.6218 26.1532 29.6477 27.4187 29.6477V26.9798C26.2229 26.9795 25.2421 26.0632 25.1374 24.8945Z" fill="#E6E7E8"/>
<path d="M44.0459 29.6477V22.8093C45.3116 22.8093 46.3375 23.8355 46.3375 25.101V27.3558C46.3375 28.6215 45.3116 29.6477 44.0459 29.6477Z" fill="white"/>
<path d="M44.0459 26.9795V29.6475C45.3116 29.6475 46.3375 28.6215 46.3375 27.3558V25.101C46.3375 25.0313 46.3332 24.9626 46.3272 24.8943C46.2224 26.0632 45.2416 26.9795 44.0459 26.9795Z" fill="#E6E7E8"/>
<path d="M39.857 56.1184C41.2622 56.1184 42.4478 55.0011 42.4535 53.5959C42.4535 53.5869 42.4535 53.5779 42.4535 53.5689V47.4406C42.4535 43.7287 39.4444 40.7195 35.7324 40.7195C32.0205 40.7195 29.0114 43.7287 29.0114 47.4406V53.5686C29.0114 53.5776 29.0114 53.5866 29.0114 53.5957C29.0171 55.0008 30.2024 56.1181 31.6079 56.1181H39.857V56.1184Z" fill="#E6E7E8"/>
<path d="M38.7833 56.1184C39.8229 56.1184 40.6998 55.0011 40.7039 53.5959C40.7039 53.5869 40.7039 53.5779 40.7039 53.5689V47.4406C40.7039 43.7287 38.4781 40.7195 35.7323 40.7195C32.9864 40.7195 30.7606 43.7287 30.7606 47.4406V53.5686C30.7606 53.5776 30.7606 53.5866 30.7606 53.5957C30.7647 55.0008 31.6416 56.1181 32.6813 56.1181H38.7833V56.1184Z" fill="white"/>
<path d="M39.8571 54.1441H31.6075C30.2023 54.1441 29.0166 53.0269 29.0112 51.6217C29.0112 51.6127 29.0112 51.6036 29.0112 51.5946V53.5688C29.0112 53.5778 29.0112 53.5869 29.0112 53.5959C29.0169 55.0011 30.2023 56.1184 31.6075 56.1184H39.8571C41.2623 56.1184 42.4479 55.0011 42.4534 53.5959C42.4534 53.5869 42.4534 53.5778 42.4534 53.5688V51.5946C42.4534 51.6036 42.4534 51.6127 42.4534 51.6217C42.4479 53.0269 41.2623 54.1441 39.8571 54.1441Z" fill="#E6E7E8"/>
<path d="M39.0641 53.4707H32.4002C32.0318 53.4707 31.7332 53.1721 31.7332 52.8037V45.4792C31.7332 45.1109 32.0318 44.8123 32.4002 44.8123H39.0641C39.4324 44.8123 39.731 45.1109 39.731 45.4792V52.8037C39.7313 53.1721 39.4327 53.4707 39.0641 53.4707Z" fill="#1CAEE4"/>
<path d="M39.0641 44.8123H32.4002C32.0318 44.8123 31.7332 45.1109 31.7332 45.4792V46.2505C31.7332 45.8822 32.0318 45.5836 32.4002 45.5836H39.0641C39.4324 45.5836 39.731 45.8822 39.731 46.2505V45.4792C39.7313 45.1109 39.4324 44.8123 39.0641 44.8123Z" fill="#009ADD"/>
<path d="M35.4427 51.1833C35.2606 51.1833 35.0856 51.1109 34.9568 50.9821L33.6134 49.6389C33.3449 49.3707 33.3449 48.9357 33.6134 48.6674C33.8819 48.3989 34.3167 48.3989 34.5849 48.6674L35.4424 49.5247L37.1799 47.787C37.4484 47.5184 37.8831 47.5184 38.1514 47.787C38.4199 48.0552 38.4199 48.4902 38.1514 48.7585L35.9281 50.9823C35.7998 51.1109 35.6254 51.1833 35.4427 51.1833Z" fill="#009ADD"/>
<path d="M35.4427 50.6977C35.2606 50.6977 35.0856 50.6253 34.9568 50.4965L33.6134 49.1534C33.3449 48.8851 33.3449 48.4501 33.6134 48.1818C33.8819 47.9133 34.3167 47.9133 34.5849 48.1818L35.4424 49.0391L37.1799 47.3014C37.4484 47.0328 37.8831 47.0328 38.1514 47.3014C38.4199 47.5696 38.4199 48.0046 38.1514 48.2729L35.9281 50.4967C35.7998 50.6253 35.6254 50.6977 35.4427 50.6977Z" fill="#FEDE3A"/>
<path d="M38.1519 47.3464L35.9286 49.5703C35.7998 49.6991 35.6254 49.7715 35.4427 49.7715C35.2606 49.7715 35.0856 49.6991 34.9568 49.5703L33.6134 48.2272C33.6063 48.2201 33.6014 48.2116 33.5948 48.2045C33.3474 48.4741 33.3523 48.8922 33.6134 49.1533L34.9568 50.4964C35.0856 50.6252 35.2606 50.6977 35.4427 50.6977C35.6251 50.6977 35.7998 50.6252 35.9286 50.4964L38.1519 48.2726C38.4133 48.0112 38.418 47.5931 38.1705 47.3237C38.164 47.3311 38.159 47.3393 38.1519 47.3464Z" fill="#F7CB15"/>
<path d="M50.6382 37.3674C52.9093 37.3674 54.7567 35.5198 54.7567 33.2489C54.7567 31.521 53.6722 29.9835 52.0775 29.389V22.3592C52.0775 22.2539 52.0428 22.1517 51.9791 22.068L51.0191 20.8116C50.9283 20.6929 50.7875 20.6232 50.6382 20.6232C50.4886 20.6232 50.3478 20.6929 50.2573 20.8116L49.2972 22.068C49.2332 22.1517 49.1988 22.2539 49.1988 22.3592V29.3888C47.6044 29.9832 46.5197 31.521 46.5197 33.2486C46.5197 35.5198 48.3673 37.3674 50.6382 37.3674ZM49.6852 34.0249H51.5914C52.0125 34.0249 52.3537 34.3661 52.3537 34.7872C52.3537 35.2083 52.0125 35.5496 51.5914 35.5496H49.6852C49.2641 35.5496 48.9229 35.2083 48.9229 34.7872C48.9229 34.3661 49.2641 34.0249 49.6852 34.0249Z" fill="#FEDE3A"/>
<path d="M48.1923 34.7875C48.1923 35.2086 48.5335 35.5498 48.9546 35.5498H49.685C49.2639 35.5498 48.9226 35.2086 48.9226 34.7875C48.9226 34.3664 49.2639 34.0251 49.685 34.0251H48.9546C48.5335 34.0249 48.1923 34.3664 48.1923 34.7875Z" fill="#F7CB15"/>
<path d="M50.2729 20.7952C50.2778 20.8009 50.2841 20.8056 50.2887 20.8116L51.2488 22.068C51.3127 22.1514 51.3472 22.2539 51.3472 22.3592V29.3888C52.9416 29.9832 54.0263 31.521 54.0263 33.2489C54.0263 35.3964 52.3734 37.1631 50.2731 37.3488C50.3937 37.3595 50.5151 37.3674 50.6384 37.3674C52.9096 37.3674 54.757 35.5198 54.757 33.2489C54.757 31.521 53.6725 29.9835 52.0778 29.3888V22.3592C52.0778 22.2539 52.0431 22.1517 51.9794 22.068L51.0193 20.8116C50.9286 20.6929 50.7877 20.6232 50.6384 20.6232C50.4965 20.6232 50.3636 20.6874 50.2729 20.7952Z" fill="#F7CB15"/>
<path d="M50.2135 27.0903V27.241C50.2135 27.483 50.4099 27.6793 50.6518 27.6793H51.3472V26.652H50.6518C50.4099 26.652 50.2135 26.848 50.2135 27.0903Z" fill="#F7CB15"/>
<path d="M50.2135 24.4193V24.5699C50.2135 24.8119 50.4099 25.0083 50.6518 25.0083H51.3472V23.981H50.6518C50.4099 23.981 50.2135 24.1773 50.2135 24.4193Z" fill="#F7CB15"/>
<path d="M23.3412 28.9914H21.1914L20.5259 27.9863C20.3782 27.7632 20.1283 27.6289 19.8609 27.6289H15.7724C15.3573 27.6289 15.0207 27.9114 15.0207 28.2597V28.9914V29.6348V31.8111H24.0931V29.6223C24.0929 29.2739 23.7565 28.9914 23.3412 28.9914Z" fill="#009ADD"/>
<path d="M23.3412 29.5231H20.8764L20.1458 28.4197C20.0386 28.2579 19.8576 28.1605 19.6634 28.1605H15.7724C15.3573 28.1605 15.0207 28.443 15.0207 28.7913V29.5231V30.1665V32.3428H24.0931V30.1539C24.0929 29.8055 23.7565 29.5231 23.3412 29.5231Z" fill="#A9A7F3"/>
<path d="M23.3412 30.1267H21.5726H20.8764H15.6641C15.3087 30.1267 15.0207 30.4146 15.0207 30.7701V36.4978C15.0207 36.8462 15.3573 37.1286 15.7724 37.1286H23.3412C23.7563 37.1286 24.0929 36.8462 24.0929 36.4978V30.7575C24.0931 30.4092 23.7565 30.1267 23.3412 30.1267Z" fill="#1CAEE4"/>
<path d="M23.3412 30.1267H21.5726H20.8764H15.6641C15.3087 30.1267 15.0207 30.4149 15.0207 30.7701V31.3019C15.0207 30.9465 15.3089 30.6585 15.6641 30.6585H20.8764H21.5726H23.3412C23.7563 30.6585 24.0929 30.941 24.0929 31.2894V30.7575C24.0931 30.4092 23.7565 30.1267 23.3412 30.1267Z" fill="#009ADD"/>
<path d="M20.5412 33.183C20.5412 33.195 20.5412 33.2079 20.5395 33.2199C20.5267 33.5855 20.315 33.8997 20.0088 34.0585V35.0735C20.0088 35.3229 19.8067 35.5258 19.5565 35.5258C19.3063 35.5258 19.1043 35.3229 19.1043 35.0735V34.0585C18.798 33.8997 18.5864 33.5855 18.5735 33.2199C18.5719 33.2079 18.5719 33.195 18.5719 33.183C18.5719 32.6394 19.0129 32.1986 19.5563 32.1986C20.0996 32.1986 20.5412 32.6394 20.5412 33.183Z" fill="#A9A7F3"/>
<rect x="1.23227" y="0.700439" width="69" height="69" rx="34.5" stroke="#2359A9"/>
</svg>
