<svg width="69" height="67" viewBox="0 0 69 67" fill="none" xmlns="http://www.w3.org/2000/svg">
<path d="M33.9062 60.9844C50.5179 60.9844 63.9844 47.5179 63.9844 30.9062C63.9844 14.2946 50.5179 0.828125 33.9062 0.828125C17.2946 0.828125 3.82812 14.2946 3.82812 30.9062C3.82812 47.5179 17.2946 60.9844 33.9062 60.9844Z" fill="#A9A7F3"/>
<path d="M18.0469 37.22C18.0469 28.7866 23.5796 23.3474 27.0244 19.8572C30.8585 15.9728 31.8708 11.7536 32.0906 9.13575C32.1694 8.19567 33.3052 7.77622 33.9593 8.45599C37.205 11.8291 43.6242 19.1375 45.022 25.4808C46.8284 33.6806 43.2441 38.2393 43.2441 38.2393C43.2441 38.2393 45.5142 37.5011 46.678 35.9578C47.1423 35.3415 47.5371 34.7142 47.8603 34.1405C48.23 33.4859 49.222 33.7539 49.2111 34.5053C49.1941 35.6455 49.0744 37.215 48.7397 39.3298C47.4616 47.399 40.4791 51.4956 36.1709 53.2844C33.9724 54.1972 31.488 54.0807 29.3705 52.9946C25.0327 50.7704 18.0469 45.8491 18.0469 37.22Z" fill="#FA759E"/>
<g filter="url(#filter0_d_15_2281)">
<path d="M63.2127 37.7291C62.9191 37.6552 62.6227 37.8324 62.5488 38.1261C59.2484 51.2626 47.4698 60.4375 33.9062 60.4375C17.623 60.4375 4.375 47.19 4.375 30.9062C4.375 14.6225 17.623 1.375 33.9062 1.375C49.7946 1.375 62.7545 13.8005 63.4118 29.6627C63.4244 29.9645 63.7011 30.197 63.9805 30.1866C64.2824 30.174 64.517 29.9191 64.5045 29.6173C63.823 13.1673 50.383 0.28125 33.9062 0.28125C17.0193 0.28125 3.28125 14.0198 3.28125 30.9062C3.28125 47.7927 17.0193 61.5312 33.9062 61.5312C47.9724 61.5312 60.1869 52.0162 63.6092 38.3924C63.683 38.0993 63.5053 37.8023 63.2127 37.7291Z" fill="#A9A7F3"/>
<path d="M63.0913 38.2141L63.0908 38.214C63.0648 38.2074 63.0402 38.2223 63.0338 38.2479C63.0337 38.248 63.0337 38.248 63.0337 38.248L62.5488 38.1261L63.0913 38.2141ZM63.0913 38.2141C63.1153 38.2201 63.1308 38.2448 63.1244 38.2703L63.1243 38.2706C59.7579 51.6716 47.7437 61.0312 33.9062 61.0312C17.2954 61.0312 3.78125 47.5165 3.78125 30.9062C3.78125 14.296 17.2954 0.78125 33.9062 0.78125C50.1153 0.78125 63.3346 13.4561 64.0049 29.638L64.0049 29.6381C64.0059 29.663 63.9871 29.6845 63.9622 29.6868M63.0913 38.2141L64.5045 29.6173C64.517 29.9191 64.2824 30.174 63.9805 30.1866M63.9805 30.1866L63.962 29.6869C63.9625 29.6869 63.9628 29.6869 63.9628 29.6869C63.9628 29.6869 63.9626 29.6869 63.9622 29.6868M63.9805 30.1866C63.7011 30.197 63.4244 29.9645 63.4118 29.6627M63.9805 30.1866L63.4118 29.6627M63.9622 29.6868C63.9611 29.6867 63.9584 29.6862 63.9543 29.6846C63.9468 29.6817 63.9378 29.6765 63.9295 29.6691C63.9212 29.6617 63.9163 29.6545 63.9138 29.6495C63.9117 29.6453 63.9114 29.643 63.9114 29.642M63.9622 29.6868L63.9114 29.642M63.9114 29.642C63.9114 29.6419 63.9114 29.6419 63.9114 29.6418L63.4118 29.6627M63.9114 29.642L63.4118 29.6627" stroke="#2359A9"/>
</g>
<path d="M63.9877 31.1797C63.9827 31.1797 63.9778 31.1797 63.9729 31.1797C63.6781 31.1797 63.4348 31.4154 63.4266 31.7123C63.3877 33.1933 63.2363 34.6797 62.9776 36.1305C62.9245 36.428 63.1225 36.7119 63.42 36.7649C63.4528 36.7709 63.4845 36.7737 63.5168 36.7737C63.7771 36.7737 64.0074 36.5877 64.0544 36.323C64.3229 34.8191 64.4793 33.2775 64.5209 31.7419C64.528 31.4389 64.2895 31.1879 63.9877 31.1797Z" fill="#3A2C60"/>
<path d="M45.5558 25.3626C44.153 18.9954 37.9351 11.7996 34.353 8.07644C33.9041 7.60941 33.2451 7.45301 32.6364 7.66902C32.0184 7.88832 31.6001 8.43246 31.5454 9.08926C31.3184 11.7864 30.2827 15.777 26.635 19.4728L26.4409 19.6696C22.8807 23.273 17.5 28.7188 17.5 37.22C17.5 46.1843 24.7805 51.2561 29.1205 53.4807C30.3702 54.1217 31.7313 54.4449 33.093 54.4449C34.2098 54.4449 35.3265 54.2272 36.3809 53.7897C40.6273 52.0261 47.95 47.814 49.28 39.4151C49.577 37.5415 49.7377 35.8921 49.7585 34.5129C49.7673 33.9212 49.3899 33.4208 48.8212 33.2671C48.2535 33.114 47.6749 33.3563 47.3845 33.8714C47.0274 34.5047 46.643 35.0959 46.241 35.628C45.8024 36.2099 45.1768 36.6709 44.5971 37.01C45.5705 34.9772 46.801 31.0151 45.5558 25.3626ZM42.8143 37.9008C42.6655 38.09 42.6579 38.3547 42.7957 38.5516C42.9341 38.7496 43.184 38.8321 43.4137 38.7589C43.5132 38.7266 45.862 37.9484 47.1149 36.2864C47.5448 35.7161 47.956 35.0839 48.3372 34.4085C48.3831 34.3281 48.4482 34.3002 48.5357 34.3226C48.6221 34.3461 48.6659 34.4046 48.6642 34.4965C48.6445 35.8238 48.4881 37.4212 48.1994 39.2439C46.9525 47.1168 39.9962 51.1035 35.9603 52.7791C33.9199 53.6257 31.6083 53.5272 29.6187 52.5073C25.5019 50.3964 18.5938 45.603 18.5938 37.22C18.5938 29.1678 23.7841 23.9145 27.2185 20.4386L27.4132 20.2417C31.2911 16.3124 32.393 12.0582 32.6348 9.18168C32.6632 8.8459 32.923 8.72832 33.0023 8.70043C33.0422 8.68621 33.1089 8.66816 33.1888 8.66816C33.3003 8.66816 33.4381 8.70371 33.565 8.83551C36.3841 11.7657 43.0927 19.265 44.4877 25.5983C46.2109 33.4197 42.8477 37.8582 42.8143 37.9008Z" fill="#3A2C60"/>
<path d="M32.8546 50.3269C33.2325 50.3269 33.6016 50.2312 33.9336 50.0496C35.5452 49.1669 40.1472 46.1662 39.7097 40.8676C39.3859 36.9443 36.0276 35.8708 34.5275 33.0905C33.6131 31.3957 34.2573 29.4953 34.8108 28.3862C34.9912 28.0248 34.6516 27.6223 34.2688 27.7508C31.8872 28.5519 26.3791 31.1168 25.3252 37.9084C24.098 45.8168 30.1022 49.2676 31.8987 50.113C32.1983 50.2536 32.5226 50.3269 32.8546 50.3269Z" fill="#FFD7E5"/>
<defs>
<filter id="filter0_d_15_2281" x="-0.71875" y="0.28125" width="69.2237" height="69.25" filterUnits="userSpaceOnUse" color-interpolation-filters="sRGB">
<feFlood flood-opacity="0" result="BackgroundImageFix"/>
<feColorMatrix in="SourceAlpha" type="matrix" values="0 0 0 0 0 0 0 0 0 0 0 0 0 0 0 0 0 0 127 0" result="hardAlpha"/>
<feOffset dy="4"/>
<feGaussianBlur stdDeviation="2"/>
<feComposite in2="hardAlpha" operator="out"/>
<feColorMatrix type="matrix" values="0 0 0 0 0 0 0 0 0 0 0 0 0 0 0 0 0 0 0.25 0"/>
<feBlend mode="normal" in2="BackgroundImageFix" result="effect1_dropShadow_15_2281"/>
<feBlend mode="normal" in="SourceGraphic" in2="effect1_dropShadow_15_2281" result="shape"/>
</filter>
</defs>
</svg>
