<svg width="66" height="66" viewBox="0 0 66 66" fill="none" xmlns="http://www.w3.org/2000/svg">
<path d="M33 65.8125C51.1218 65.8125 65.8125 51.1218 65.8125 33C65.8125 14.8782 51.1218 0.1875 33 0.1875C14.8782 0.1875 0.1875 14.8782 0.1875 33C0.1875 51.1218 14.8782 65.8125 33 65.8125Z" fill="#A9A7F3"/>
<path d="M33 61.0273C48.4791 61.0273 61.0273 48.4791 61.0273 33C61.0273 17.5209 48.4791 4.97266 33 4.97266C17.5209 4.97266 4.97266 17.5209 4.97266 33C4.97266 48.4791 17.5209 61.0273 33 61.0273Z" fill="#A9A7F3"/>
<path d="M55.0686 44.2284C54.8422 44.0217 54.5387 43.8904 54.1827 43.8904H54.0172H51.8352V24.4299C51.8352 23.4184 51.0152 22.5984 50.0037 22.5984H46.7006C45.6891 22.5984 44.8691 23.4184 44.8691 24.4299V43.8904H42.6871H42.5216C41.7388 43.8904 41.2083 44.5262 41.199 45.2002C41.1957 45.4452 41.2611 45.6954 41.4085 45.9221C41.4454 45.9787 41.4872 46.0339 41.5345 46.0869L47.365 52.6549C47.4307 52.7287 47.5026 52.7935 47.5791 52.8491C47.6557 52.9046 47.7369 52.9508 47.8214 52.9877C47.9901 53.0615 48.1711 53.0987 48.3524 53.0987C48.5334 53.0987 48.7147 53.0618 48.8834 52.9877C48.9679 52.9508 49.0491 52.9046 49.1257 52.8491C49.2023 52.7935 49.2742 52.7287 49.3398 52.6549L55.1703 46.0869C55.6896 45.5015 55.5663 44.6828 55.0686 44.2284Z" fill="#A9A7F3"/>
<path d="M41.3669 36.6249C41.3768 36.5448 41.3836 36.4636 41.3836 36.3807C41.3836 36.2448 41.3699 36.1122 41.3437 35.984C41.3305 35.92 41.3144 35.8568 41.2953 35.7953C41.0459 34.9939 40.2983 34.412 39.4151 34.412H40.688C41.6034 34.412 42.3707 33.7864 42.5911 32.9401C42.6105 32.866 42.6255 32.7905 42.6362 32.7134C42.6376 32.7046 42.6389 32.6962 42.64 32.6877C42.6499 32.6076 42.6567 32.5264 42.6567 32.4435C42.6567 32.2395 42.6258 32.0429 42.5681 31.8581C42.3187 31.0566 41.5714 30.4748 40.688 30.4748H39.1357C40.0511 30.4748 40.8184 29.8491 41.0388 29.0029V29.0026C41.0579 28.9285 41.0732 28.853 41.0839 28.7759C41.0853 28.7671 41.0866 28.7587 41.0877 28.7499C41.0976 28.6698 41.1044 28.5889 41.1044 28.506C41.1044 28.2342 41.0494 27.9753 40.9496 27.7398C40.8999 27.622 40.8389 27.5102 40.7681 27.4054C40.7328 27.3529 40.6948 27.3026 40.6549 27.2539C40.5346 27.1082 40.3935 26.98 40.2365 26.8736C40.184 26.8383 40.1299 26.8052 40.0741 26.7749C39.9625 26.7142 39.8444 26.6641 39.7211 26.6259C39.6596 26.6067 39.5964 26.5906 39.5324 26.5775C39.4042 26.5512 39.2716 26.5375 39.1357 26.5375H37.4204V26.5285C38.256 26.4533 38.9391 25.8561 39.145 25.0656C39.1644 24.9915 39.1794 24.9161 39.1901 24.8389C39.1914 24.8302 39.1928 24.8217 39.1939 24.8132C39.2037 24.7331 39.2106 24.6519 39.2106 24.5691C39.2106 23.6856 38.6287 22.938 37.8273 22.6889C37.7657 22.6698 37.7026 22.6536 37.6386 22.6405C37.5672 22.626 37.4942 22.6162 37.4204 22.6096V22.6017V22.6006H37.2418H35.4981H27.3215C25.2428 22.6006 23.3449 23.7818 22.4273 25.6467C22.1541 26.2018 21.5892 26.5534 20.9704 26.5534H20.3666H18.6281V25.9324C18.6281 25.7268 18.5655 25.5357 18.4586 25.3771C18.4034 25.2953 18.3334 25.2256 18.2568 25.1635C18.0862 25.0252 17.8715 24.939 17.635 24.939H11.4881C11.2825 24.939 11.0914 25.0016 10.9328 25.1086C10.8269 25.1799 10.7359 25.2713 10.6645 25.3768C10.5573 25.5354 10.495 25.7265 10.495 25.9321V28.4158V38.7845C10.495 39.333 10.9399 39.7779 11.4884 39.7779H17.6353C18.1841 39.7779 18.6287 39.333 18.6287 38.7845V38.35H20.3672H23.9268H24.2973L27.103 40.4418C30.0518 42.64 32.7175 45.1942 35.0398 48.0461C35.3168 48.2961 35.6944 48.3565 36.0242 48.2446C36.0239 48.2452 36.0237 48.2457 36.0231 48.2463C36.0305 48.2436 36.0376 48.24 36.045 48.2373C36.1032 48.2159 36.159 48.1891 36.2132 48.1569C36.2274 48.1487 36.2416 48.1407 36.2555 48.1317C36.2788 48.1161 36.3012 48.1 36.3234 48.0822C36.3611 48.0527 36.3972 48.0207 36.4311 47.9846C36.4346 47.9808 36.4393 47.978 36.4428 47.9739L36.5191 47.8895L36.617 47.782C37.743 46.5343 37.9178 44.7293 37.1212 43.3077C37.0075 43.1046 36.8741 42.9093 36.7207 42.7245L33.0894 38.35H34.5258H37.4207H39.4154C40.411 38.35 41.2316 37.6104 41.3634 36.6512C41.3642 36.6419 41.3658 36.6334 41.3669 36.6249Z" fill="#A9A7F3"/>
<path d="M44.8691 43.0854V22.5158C44.8691 21.5044 45.6891 20.6843 46.7006 20.6843H50.0037C51.0152 20.6843 51.8352 21.5044 51.8352 22.5158V43.0854H44.8691Z" fill="#EF5A9D"/>
<path d="M42.5214 41.9763H54.1827C55.3213 41.9763 55.9258 43.3214 55.17 44.1728L49.3395 50.7408C48.8143 51.3325 47.8903 51.3325 47.365 50.7408L41.5345 44.1728C40.7782 43.3214 41.3828 41.9763 42.5214 41.9763Z" fill="#EF5A9D"/>
<path d="M54.1825 41.9763H54.0171L49.3394 47.2457C48.8141 47.8375 47.8901 47.8375 47.3649 47.2457L42.6872 41.9763H42.5217C41.3831 41.9763 40.7786 43.3214 41.5346 44.1728L47.3651 50.7408C47.8904 51.3325 48.8144 51.3325 49.3396 50.7408L55.1701 44.1728C55.9256 43.3214 55.3211 41.9763 54.1825 41.9763Z" fill="#E43D91"/>
<path d="M36.7204 40.8095C37.9467 42.2868 37.9025 44.4407 36.6162 45.8664L36.4426 46.0589C36.0751 46.4663 35.447 46.4986 35.0396 46.1311C32.7173 43.2791 30.0515 40.725 27.1028 38.5268L24.297 36.435H23.9265H18.6281V24.6384H20.9704C21.5892 24.6384 22.1541 24.2867 22.4273 23.7316C23.3449 21.8668 25.2428 20.6855 27.3215 20.6855H37.4204V36.4353H33.0891L36.7204 40.8095Z" fill="white"/>
<path d="M37.4204 36.4346V20.6865H28.4158C30.1792 21.4117 31.4184 23.1428 31.4184 25.1668C31.4184 27.1736 30.1992 28.8946 28.4607 29.6298C28.1303 29.769 28.1303 30.2508 28.4607 30.3897C30.0649 31.0679 31.2273 32.5876 31.3963 34.3956C31.4113 34.5446 31.4187 34.6986 31.4187 34.8525C31.4187 35.369 31.3391 35.8659 31.1852 36.3326C31.1753 36.3673 31.1652 36.4021 31.1529 36.4343H37.4204V36.4346Z" fill="#D1D3D4"/>
<path d="M22.4273 24.9733C22.1541 25.5284 21.5892 25.88 20.9704 25.88H18.6281V24.6384H20.9704C21.5892 24.6384 22.1541 24.2867 22.4273 23.7316C23.3449 21.8668 25.2428 20.6855 27.3215 20.6855H37.4204V21.9272H27.3215C25.2428 21.9272 23.3449 23.1085 22.4273 24.9733Z" fill="#D1D3D4"/>
<path d="M20.3666 24.6385H18.6281V36.4355H20.3666V24.6385Z" fill="#D1D3D4"/>
<path d="M11.488 23.0242H17.6349C18.1834 23.0242 18.6283 23.4691 18.6283 24.0176V36.87C18.6283 37.4185 18.1834 37.8634 17.6349 37.8634H11.488C10.9395 37.8634 10.4946 37.4185 10.4946 36.87V24.0176C10.4946 23.4691 10.9392 23.0242 11.488 23.0242Z" fill="#EF5A9D"/>
<path d="M17.6347 25.5078H11.4878C10.9391 25.5078 10.4944 25.9527 10.4944 26.5012V24.0176C10.4944 23.4691 10.9393 23.0242 11.4878 23.0242H17.6347C18.1835 23.0242 18.6281 23.4691 18.6281 24.0176V26.5012C18.6281 25.9524 18.1835 25.5078 17.6347 25.5078Z" fill="#E43D91"/>
<path d="M36.7209 40.8107L33.0875 36.4347L31.3963 34.3956C31.4113 34.5447 31.4187 34.6986 31.4187 34.8525C31.4187 35.3691 31.3391 35.8659 31.1852 36.3327L31.2697 36.4344L35.7275 41.8039C36.8103 43.1076 36.8998 44.938 36.0231 46.3315C36.1771 46.2768 36.3236 46.1898 36.4428 46.0583L36.6167 45.8672C37.903 44.4417 37.9476 42.2884 36.7209 40.8107Z" fill="#E6E7E8"/>
<path d="M14.5613 28.709C15.5986 28.709 16.4395 27.8681 16.4395 26.8308C16.4395 25.7934 15.5986 24.9525 14.5613 24.9525C13.524 24.9525 12.683 25.7934 12.683 26.8308C12.683 27.8681 13.524 28.709 14.5613 28.709Z" fill="#FEDE3A"/>
<path d="M14.5613 26.0369C13.7125 26.0369 12.9961 26.6002 12.7634 27.373C12.7118 27.2012 12.6833 27.0194 12.6833 26.831C12.6833 25.7936 13.5241 24.9528 14.5616 24.9528C15.599 24.9528 16.4398 25.7936 16.4398 26.831C16.4398 27.0197 16.4114 27.2012 16.3597 27.373C16.1267 26.5999 15.41 26.0369 14.5613 26.0369Z" fill="#F7CB15"/>
<path d="M39.4148 32.4979H34.5252C33.438 32.4979 32.5565 33.3792 32.5565 34.4667C32.5565 35.5539 33.438 36.4354 34.5252 36.4354H39.4148C40.502 36.4354 41.3836 35.5541 41.3836 34.4667C41.3836 33.3792 40.5023 32.4979 39.4148 32.4979Z" fill="white"/>
<path d="M39.4148 33.4914H34.5255C33.61 33.4914 32.8427 34.117 32.6224 34.9633C32.5811 34.8044 32.5567 34.6384 32.5567 34.4664C32.5567 33.3792 33.438 32.4977 34.5255 32.4977H39.4148C40.502 32.4977 41.3836 33.3792 41.3836 34.4664C41.3836 34.6384 41.3592 34.8041 41.3179 34.9633C41.0976 34.117 40.3303 33.4914 39.4148 33.4914Z" fill="#E6E7E8"/>
<path d="M40.6877 28.5604H34.0494C32.9623 28.5604 32.0807 29.442 32.0807 30.5292C32.0807 31.6164 32.962 32.4979 34.0494 32.4979H40.6877C41.7749 32.4979 42.6564 31.6164 42.6564 30.5292C42.6564 29.442 41.7751 28.5604 40.6877 28.5604Z" fill="white"/>
<path d="M40.6877 29.5539H34.0494C33.134 29.5539 32.3667 30.1795 32.1463 31.0258C32.105 30.8669 32.0807 30.7009 32.0807 30.5289C32.0807 29.4417 32.9623 28.5602 34.0494 28.5602H40.6877C41.7749 28.5602 42.6564 29.4415 42.6564 30.5289C42.6564 30.7009 42.6321 30.8666 42.5908 31.0258C42.3704 30.1795 41.6032 29.5539 40.6877 29.5539Z" fill="#E6E7E8"/>
<path d="M39.1356 24.6229H34.5255C33.4383 24.6229 32.5567 25.5045 32.5567 26.5917C32.5567 27.6789 33.4383 28.5604 34.5255 28.5604H39.1356C40.2228 28.5604 41.1044 27.6789 41.1044 26.5917C41.1041 25.5045 40.2228 24.6229 39.1356 24.6229Z" fill="white"/>
<path d="M39.1356 25.6164H34.5255C33.61 25.6164 32.8427 26.242 32.6224 27.0883C32.5811 26.9294 32.5567 26.7634 32.5567 26.5914C32.5567 25.5042 33.438 24.6227 34.5255 24.6227H39.1356C40.2228 24.6227 41.1044 25.5042 41.1044 26.5914C41.1044 26.7634 41.0801 26.9291 41.0388 27.0883C40.8181 26.242 40.0508 25.6164 39.1356 25.6164Z" fill="#E6E7E8"/>
<path d="M37.2418 20.6853H35.4981C34.4109 20.6853 33.5294 21.5666 33.5294 22.6541C33.5294 23.7412 34.4109 24.6228 35.4981 24.6228H37.2418C38.329 24.6228 39.2106 23.7415 39.2106 22.6541C39.2106 21.5669 38.329 20.6853 37.2418 20.6853Z" fill="white"/>
<path d="M37.2418 21.6789H35.4981C34.5826 21.6789 33.8156 22.3045 33.595 23.1508C33.5537 22.9919 33.5294 22.8259 33.5294 22.6539C33.5294 21.5667 34.4109 20.6852 35.4981 20.6852H37.2418C38.329 20.6852 39.2106 21.5667 39.2106 22.6539C39.2106 22.8259 39.1862 22.9916 39.1449 23.1508C38.9246 22.3048 38.1573 21.6789 37.2418 21.6789Z" fill="#E6E7E8"/>
</svg>
