<svg width="70" height="68" viewBox="0 0 70 68" fill="none" xmlns="http://www.w3.org/2000/svg">
<g filter="url(#filter0_d_15_2084)">
<path d="M35 65.8125C53.1218 65.8125 67.8125 51.1218 67.8125 33C67.8125 14.8782 53.1218 0.1875 35 0.1875C16.8782 0.1875 2.1875 14.8782 2.1875 33C2.1875 51.1218 16.8782 65.8125 35 65.8125Z" fill="#A9A7F3"/>
<path d="M67.3125 33C67.3125 50.8457 52.8457 65.3125 35 65.3125C17.1543 65.3125 2.6875 50.8457 2.6875 33C2.6875 15.1543 17.1543 0.6875 35 0.6875C52.8457 0.6875 67.3125 15.1543 67.3125 33Z" stroke="#2359A9"/>
</g>
<path d="M35 61.0273C50.4791 61.0273 63.0273 48.4791 63.0273 33C63.0273 17.5209 50.4791 4.97266 35 4.97266C19.5209 4.97266 6.97266 17.5209 6.97266 33C6.97266 48.4791 19.5209 61.0273 35 61.0273Z" fill="#A9A7F3"/>
<path d="M54.209 46.0569L50.1011 41.9491C49.755 41.6029 49.2649 41.4889 48.8236 41.6067L47.1814 39.9642C48.3191 38.4395 48.9929 36.5484 48.9929 34.4995C48.9929 29.4486 44.8982 25.3539 39.8472 25.3539C38.2274 25.3539 36.7057 25.775 35.3861 26.5138V24.2894C35.3861 24.2894 35.3861 24.1469 35.3861 24.0244C34.9973 20.1134 31.6977 17.0586 27.6842 17.0586C25.9489 17.0586 24.3469 17.6298 23.056 18.5942C23.056 18.595 23.0562 18.5956 23.0562 18.5964C21.1671 20.0073 19.9437 22.2597 19.9437 24.7991C19.9437 24.9727 19.95 25.145 19.9617 25.3156V37.5281C17.6744 38.8609 16.1369 41.3398 16.1369 44.1781V47.7093C16.1369 48.6398 16.891 49.3939 17.8216 49.3939H37.5465C38.477 49.3939 39.2312 48.6398 39.2312 47.7093V44.1781C39.2312 43.9916 39.2243 43.8068 39.2112 43.6236C39.4212 43.6381 39.6331 43.6455 39.8467 43.6455C41.8953 43.6455 43.7866 42.9717 45.3113 41.8339L46.9539 43.4765C46.836 43.9175 46.95 44.4078 47.2962 44.754L51.4043 48.8618C51.9208 49.3784 52.7578 49.3781 53.2744 48.8618L54.2093 47.927C54.7255 47.4104 54.7255 46.5734 54.209 46.0569ZM26.5073 24.2896H22.9285C23.5574 23.757 24.1 23.1259 24.5325 22.4202C25.075 23.1532 25.7441 23.7873 26.5073 24.2896ZM38.6252 41.1804C37.9709 39.6358 36.826 38.3493 35.3858 37.5161V29.3805C36.5791 28.3398 38.1393 27.7095 39.8469 27.7095C43.5971 27.7095 46.6375 30.7496 46.6375 34.4998C46.6375 38.25 43.5974 41.2904 39.8469 41.2904C39.4297 41.2904 39.0214 41.2526 38.6252 41.1804Z" fill="#A9A7F3"/>
<path d="M35.3858 22.3756H19.9617V35.6242H35.3858V22.3756Z" fill="#009ADD"/>
<path d="M37.5465 47.4797H17.8216C16.891 47.4797 16.1369 46.7255 16.1369 45.795V42.2639C16.1369 38.0163 19.5803 34.5729 23.8279 34.5729H31.5399C35.7875 34.5729 39.2309 38.0163 39.2309 42.2639V45.795C39.2312 46.7255 38.477 47.4797 37.5465 47.4797Z" fill="#1CAEE4"/>
<path d="M37.5465 47.4797H17.8216C16.891 47.4797 16.1369 46.7255 16.1369 45.795V42.2639C16.1369 38.0163 19.5803 34.5729 23.8279 34.5729H31.5399C35.7875 34.5729 39.2309 38.0163 39.2309 42.2639V45.795C39.2312 46.7255 38.477 47.4797 37.5465 47.4797Z" fill="#A72973"/>
<path d="M25.5511 41.9463C26.5483 43.5005 28.8197 43.5008 29.8172 41.9463C31.3458 39.5641 33.2926 36.53 34.236 35.0597C33.3971 34.7456 32.489 34.5728 31.5402 34.5728H23.8281C22.8796 34.5728 21.9715 34.7456 21.1323 35.0597L25.5511 41.9463Z" fill="#EF5A9D"/>
<path d="M29.1011 41.3991C30.497 39.2236 32.5341 36.0487 33.3432 34.7876C32.7646 34.6485 32.1614 34.573 31.5399 34.573H23.8282C23.2069 34.573 22.6034 34.6487 22.0248 34.7876L26.2661 41.3977C26.9292 42.431 28.4383 42.4321 29.1011 41.3991Z" fill="#E43D91"/>
<path d="M23.4965 34.573L26.5007 39.2548L27.6839 37.4733L25.8229 34.573H23.4965Z" fill="#F06EA9"/>
<path d="M31.8716 34.573L28.8673 39.2548L27.6839 37.4733L29.5452 34.573H31.8716Z" fill="#F06EA9"/>
<path d="M27.6842 39.9458C27.9167 39.9458 28.1052 39.7573 28.1052 39.5247C28.1052 39.2922 27.9167 39.1036 27.6842 39.1036C27.4516 39.1036 27.2631 39.2922 27.2631 39.5247C27.2631 39.7573 27.4516 39.9458 27.6842 39.9458Z" fill="#EF5A9D"/>
<path d="M19.5207 47.4798H20.3839V35.3876C20.0848 35.5377 19.796 35.7053 19.5207 35.8915V47.4798Z" fill="#EF5A9D"/>
<path d="M34.9841 47.4798H35.8474V35.8915C35.572 35.705 35.2833 35.5377 34.9841 35.3876V47.4798Z" fill="#EF5A9D"/>
<path d="M19.5207 47.4799V35.8916C17.4789 37.2744 16.1369 39.6125 16.1369 42.2641V45.7952C16.1369 46.7257 16.891 47.4799 17.8216 47.4799H19.5207Z" fill="#E43D91"/>
<path d="M35.8474 35.8916V47.4799H37.5465C38.477 47.4799 39.2312 46.7257 39.2312 45.7952V42.2641C39.2312 39.6125 37.8891 37.2744 35.8474 35.8916Z" fill="#E43D91"/>
<path d="M27.6842 30.6255C31.9591 30.6255 35.4246 27.1599 35.4246 22.885C35.4246 18.6101 31.9591 15.1445 27.6842 15.1445C23.4092 15.1445 19.9437 18.6101 19.9437 22.885C19.9437 27.1599 23.4092 30.6255 27.6842 30.6255Z" fill="#009ADD"/>
<path d="M27.6839 32.0353C24.4448 32.0353 21.8187 29.4095 21.8187 26.1701V23.1245C21.8187 19.8854 24.4445 17.2593 27.6839 17.2593C30.9233 17.2593 33.5491 19.8851 33.5491 23.1245V26.1701C33.5491 29.4092 30.9233 32.0353 27.6839 32.0353Z" fill="white"/>
<path d="M27.6839 32.0354C27.0334 32.0354 26.4075 31.9293 25.8229 31.7338V34.5731L27.6839 37.4735L29.5449 34.5731V31.7338C28.9603 31.9293 28.3347 32.0354 27.6839 32.0354Z" fill="#E6E7E8"/>
<path d="M27.6839 32.0354C27.0334 32.0354 26.4075 31.9293 25.8229 31.7338V32.8518C26.4083 33.0476 27.0326 33.1584 27.6839 33.1584C28.3352 33.1584 28.9598 33.0479 29.5449 32.8518V31.7338C28.9603 31.9293 28.3347 32.0354 27.6839 32.0354Z" fill="#D1D3D4"/>
<path d="M27.6839 31.1929C24.4448 31.1929 21.8187 28.5671 21.8187 25.3276V26.1701C21.8187 29.4092 24.4445 32.0353 27.6839 32.0353C30.923 32.0353 33.5491 29.4095 33.5491 26.1701V25.3276C33.5491 28.5671 30.9233 31.1929 27.6839 31.1929Z" fill="#E6E7E8"/>
<path d="M21.8189 23.1246V24.2799C24.1114 22.9436 25.6558 20.4657 25.6668 17.6233C23.4229 18.4466 21.8189 20.5953 21.8189 23.1246Z" fill="#E6E7E8"/>
<path d="M30.7576 24.4884C31.7428 24.4884 32.6823 24.2989 33.5491 23.9631V23.1245C33.5491 19.8851 30.9233 17.2593 27.6839 17.2593C25.9883 17.2593 24.4653 17.9831 23.3945 19.1337C24.4004 22.2408 27.3156 24.4884 30.7576 24.4884Z" fill="#E6E7E8"/>
<path d="M23.056 16.6802C23.4445 20.5914 26.7441 23.6463 30.7576 23.6463C32.4928 23.6463 34.0949 23.075 35.3858 22.1106C34.9973 18.1994 31.6977 15.1445 27.6842 15.1445C25.9487 15.1445 24.3469 15.7157 23.056 16.6802Z" fill="#1CAEE4"/>
<path d="M19.9437 22.885C19.9437 23.2372 19.9694 23.5833 20.0151 23.9232C23.2755 23.0118 25.6678 20.0213 25.6678 16.4701C25.6678 16.1179 25.6421 15.7718 25.5965 15.4319C22.3363 16.3433 19.9437 19.3336 19.9437 22.885Z" fill="#009ADD"/>
<path d="M25.1885 26.1124C25.581 26.1124 25.8992 25.7942 25.8992 25.4017C25.8992 25.0092 25.581 24.691 25.1885 24.691C24.796 24.691 24.4778 25.0092 24.4778 25.4017C24.4778 25.7942 24.796 26.1124 25.1885 26.1124Z" fill="#1CAEE4"/>
<path d="M31.412 25.4017C31.412 25.7941 31.0937 26.1124 30.7013 26.1124C30.3089 26.1124 29.9906 25.7944 29.9906 25.4017C29.9906 25.0093 30.3089 24.691 30.7013 24.691C31.0937 24.691 31.412 25.009 31.412 25.4017Z" fill="#1CAEE4"/>
<path d="M46.263 37.1312L44.3934 39.0009L47.2168 41.8243L49.0865 39.9546L46.263 37.1312Z" fill="#FEDE3A"/>
<path d="M44.9097 38.4843L44.3933 39.0007L47.2167 41.8242L47.7332 41.3078L44.9097 38.4843Z" fill="#E7AD27"/>
<path d="M51.4043 46.9478L47.2962 42.8399C46.7799 42.3236 46.7799 41.4864 47.2962 40.9699L48.2311 40.035C48.7473 39.5185 49.5846 39.5185 50.1011 40.035L54.209 44.1428C54.7252 44.6591 54.7255 45.4963 54.209 46.0129L53.2741 46.9478C52.7578 47.4643 51.9206 47.4643 51.4043 46.9478Z" fill="#1CAEE4"/>
<path d="M52.2686 46.0834L48.1605 41.9755C47.6443 41.4593 47.6443 40.622 48.1605 40.1055L48.2346 40.0314C48.2335 40.0325 48.2322 40.0338 48.2308 40.0349L47.2959 40.9698C46.7797 41.4861 46.7797 42.3233 47.2959 42.8396L51.4038 46.9474C51.92 47.4639 52.7576 47.4637 53.2738 46.9474L54.1346 46.0866C53.6183 46.5996 52.7838 46.5985 52.2686 46.0834Z" fill="#009ADD"/>
<path d="M39.8469 23.4401C34.796 23.4401 30.7013 27.5348 30.7013 32.5857C30.7013 37.6367 34.796 41.7314 39.8469 41.7314C44.8981 41.7314 48.9926 37.6367 48.9926 32.5857C48.9926 27.5348 44.8979 23.4401 39.8469 23.4401ZM39.8469 39.3763C36.0967 39.3763 33.0564 36.3362 33.0564 32.5857C33.0564 28.8355 36.0965 25.7955 39.8469 25.7955C43.5971 25.7955 46.6375 28.8355 46.6375 32.5857C46.6375 36.3359 43.5971 39.3763 39.8469 39.3763Z" fill="#FEDE3A"/>
<path d="M39.8469 24.7616C35.5258 24.7616 32.0228 28.2646 32.0228 32.5857C32.0228 36.9069 35.5258 40.4099 39.8469 40.4099C44.1681 40.4099 47.6711 36.9069 47.6711 32.5857C47.6711 28.2646 44.1681 24.7616 39.8469 24.7616ZM39.8469 39.3763C36.0967 39.3763 33.0564 36.3362 33.0564 32.5857C33.0564 28.8355 36.0965 25.7955 39.8469 25.7955C43.5971 25.7955 46.6375 28.8355 46.6375 32.5857C46.6375 36.3359 43.5971 39.3763 39.8469 39.3763Z" fill="#F7CB15"/>
<path d="M44.648 37.3873C47.2999 34.7354 47.2999 30.4359 44.648 27.7841C41.9962 25.1322 37.6967 25.1322 35.0448 27.7841C32.393 30.4359 32.393 34.7354 35.0448 37.3873C37.6967 40.0391 41.9962 40.0391 44.648 37.3873Z" fill="#009ADD"/>
<path d="M39.9713 38.1515C43.0453 38.1515 45.5372 35.6596 45.5372 32.5857C45.5372 29.5118 43.0453 27.0199 39.9713 27.0199C36.8974 27.0199 34.4055 29.5118 34.4055 32.5857C34.4055 35.6596 36.8974 38.1515 39.9713 38.1515Z" fill="#1CAEE4"/>
<path d="M39.4923 35.8139C39.2199 35.8139 38.9582 35.7056 38.7655 35.5128L36.756 33.5036C36.3546 33.1025 36.3546 32.4517 36.756 32.05C37.1574 31.6483 37.8079 31.6486 38.2096 32.05L39.4925 33.3321L42.0916 30.7326C42.493 30.3312 43.1435 30.3312 43.5452 30.7326C43.9466 31.1337 43.9466 31.7845 43.5452 32.1862L40.2193 35.5128C40.0263 35.7056 39.7654 35.8139 39.4923 35.8139Z" fill="#009ADD"/>
<path d="M39.4923 35.3772C39.2199 35.3772 38.9582 35.2689 38.7655 35.0762L36.756 33.0669C36.3546 32.6658 36.3546 32.015 36.756 31.6133C37.1574 31.2119 37.8079 31.2119 38.2096 31.6133L39.4925 32.8955L42.0916 30.2959C42.493 29.8945 43.1435 29.8945 43.5452 30.2959C43.9466 30.6971 43.9466 31.3478 43.5452 31.7495L40.2193 35.0762C40.0263 35.2689 39.7654 35.3772 39.4923 35.3772Z" fill="#FFF335"/>
<path d="M43.5449 30.3645L40.219 33.6911C40.0263 33.8839 39.7654 33.9922 39.4922 33.9922C39.2199 33.9922 38.9582 33.8836 38.7654 33.6911L36.7559 31.6819C36.7453 31.6713 36.7382 31.6587 36.7281 31.6477C36.3578 32.0511 36.3652 32.6764 36.7559 33.0672L38.7654 35.0764C38.9582 35.2691 39.2199 35.3774 39.4922 35.3774C39.7651 35.3774 40.0263 35.2691 40.219 35.0764L43.5449 31.7497C43.9359 31.359 43.943 30.7334 43.5727 30.3303C43.5626 30.3413 43.5555 30.3538 43.5449 30.3645Z" fill="#F7CB15"/>
<defs>
<filter id="filter0_d_15_2084" x="-1.8125" y="0.1875" width="73.625" height="73.625" filterUnits="userSpaceOnUse" color-interpolation-filters="sRGB">
<feFlood flood-opacity="0" result="BackgroundImageFix"/>
<feColorMatrix in="SourceAlpha" type="matrix" values="0 0 0 0 0 0 0 0 0 0 0 0 0 0 0 0 0 0 127 0" result="hardAlpha"/>
<feOffset dy="4"/>
<feGaussianBlur stdDeviation="2"/>
<feComposite in2="hardAlpha" operator="out"/>
<feColorMatrix type="matrix" values="0 0 0 0 0 0 0 0 0 0 0 0 0 0 0 0 0 0 0.25 0"/>
<feBlend mode="normal" in2="BackgroundImageFix" result="effect1_dropShadow_15_2084"/>
<feBlend mode="normal" in="SourceGraphic" in2="effect1_dropShadow_15_2084" result="shape"/>
</filter>
</defs>
</svg>
