<svg width="74" height="74" viewBox="0 0 74 74" fill="none" xmlns="http://www.w3.org/2000/svg">
<g filter="url(#filter0_d_15_1999)">
<path d="M36.8125 65.625C54.9343 65.625 69.625 50.9343 69.625 32.8125C69.625 14.6907 54.9343 0 36.8125 0C18.6907 0 4 14.6907 4 32.8125C4 50.9343 18.6907 65.625 36.8125 65.625Z" fill="#A9A7F3"/>
<path d="M69.125 32.8125C69.125 50.6582 54.6582 65.125 36.8125 65.125C18.9668 65.125 4.5 50.6582 4.5 32.8125C4.5 14.9668 18.9668 0.5 36.8125 0.5C54.6582 0.5 69.125 14.9668 69.125 32.8125Z" stroke="#2359A9"/>
</g>
<path d="M36.8125 60.8398C52.2916 60.8398 64.8398 48.2916 64.8398 32.8125C64.8398 17.3334 52.2916 4.78516 36.8125 4.78516C21.3334 4.78516 8.78516 17.3334 8.78516 32.8125C8.78516 48.2916 21.3334 60.8398 36.8125 60.8398Z" fill="#A9A7F3"/>
<path d="M59.3935 41.9927L56.8191 39.4182V22.6327V21.539C56.8191 20.6328 56.0846 19.8984 55.1785 19.8984H49.8905C47.8101 17.6403 44.8297 16.2247 41.5173 16.2247C38.2051 16.2247 35.2244 17.6403 33.1443 19.8984H18.4465C17.5403 19.8984 16.8059 20.6328 16.8059 21.539V22.6327V26.1434C15.5352 27.3785 14.745 29.105 14.745 31.0169C14.745 32.9288 15.5355 34.6552 16.8059 35.8904V43.2316V44.3254C16.8059 45.2315 17.5403 45.966 18.4465 45.966H32.9502C32.8605 47.9716 32.2857 49.9256 31.2759 51.6609L31.0361 52.0727H29.681C28.9386 52.0727 28.3365 52.6745 28.3365 53.4172C28.3365 54.1595 28.9383 54.7616 29.681 54.7616H43.944C44.6864 54.7616 45.2885 54.1598 45.2885 53.4172C45.2885 52.6748 44.6867 52.0727 43.944 52.0727H42.5889L42.3491 51.6609C41.339 49.9256 40.7645 47.9716 40.6748 45.966H55.1785C55.5309 45.966 55.8566 45.8539 56.124 45.6646C56.766 46.1155 57.6564 46.0576 58.2303 45.4836L59.3938 44.3202C60.0361 43.6776 60.0361 42.6355 59.3935 41.9927ZM41.5175 19.1563C42.7516 19.1563 43.923 19.4229 44.9798 19.8984H38.0553C39.1121 19.4229 40.2832 19.1563 41.5175 19.1563Z" fill="#A9A7F3"/>
<path d="M55.1785 44.0519H18.4465C17.5403 44.0519 16.8059 43.3174 16.8059 42.4112V20.7186C16.8059 19.8125 17.5403 19.078 18.4465 19.078H55.1782C56.0844 19.078 56.8188 19.8125 56.8188 20.7186V42.4112C56.8191 43.3174 56.0844 44.0519 55.1785 44.0519Z" fill="#E6E7E8"/>
<path d="M55.1785 42.9581H18.4465C17.5403 42.9581 16.8059 42.2237 16.8059 41.3175V19.6249C16.8059 18.7187 17.5403 17.9843 18.4465 17.9843H55.1782C56.0844 17.9843 56.8188 18.7187 56.8188 19.6249V41.3175C56.8191 42.2237 56.0844 42.9581 55.1785 42.9581Z" fill="white"/>
<path d="M54.7 38.4579H18.8796C18.5775 38.4579 18.3328 38.2132 18.3328 37.911V19.8641C18.3328 19.562 18.5775 19.3173 18.8796 19.3173H54.7C55.0021 19.3173 55.2468 19.562 55.2468 19.8641V37.911C55.2468 38.2129 55.0018 38.4579 54.7 38.4579Z" fill="#1CAEE4"/>
<path d="M54.7 19.3173H18.8796C18.5775 19.3173 18.3328 19.5623 18.3328 19.8641V20.9579C18.3328 20.656 18.5775 20.411 18.8796 20.411H54.7C55.0018 20.411 55.2468 20.656 55.2468 20.9579V19.8641C55.2468 19.562 55.0018 19.3173 54.7 19.3173Z" fill="#009ADD"/>
<path d="M42.5888 50.1588H31.0361L31.2759 49.747C32.286 48.0118 32.8605 46.0578 32.9502 44.0521H40.6748C40.7645 46.0578 41.339 48.0118 42.349 49.747L42.5888 50.1588Z" fill="#D1D3D4"/>
<path d="M43.944 52.8476H29.6809C28.9386 52.8476 28.3365 52.2457 28.3365 51.5031C28.3365 50.7607 28.9383 50.1586 29.6809 50.1586H43.944C44.6864 50.1586 45.2885 50.7604 45.2885 51.5031C45.2882 52.2457 44.6864 52.8476 43.944 52.8476Z" fill="#E6E7E8"/>
<path d="M43.944 51.503H29.6809C29.1833 51.503 28.7488 51.2326 28.5164 50.8309C28.4021 51.0286 28.3365 51.2583 28.3365 51.503C28.3365 52.2454 28.9383 52.8475 29.6809 52.8475H43.944C44.6864 52.8475 45.2885 52.2457 45.2885 51.503C45.2885 51.258 45.2229 51.0286 45.1086 50.8309C44.8759 51.2326 44.4417 51.503 43.944 51.503Z" fill="#D1D3D4"/>
<path d="M31.2759 49.7468L31.0361 50.1586H42.5888L42.349 49.7468C41.8374 48.8679 41.4388 47.9325 41.1568 46.9629H32.4678C32.1862 47.9325 31.7875 48.8679 31.2759 49.7468Z" fill="white"/>
<path d="M49.5034 31.3521L47.1763 33.6792L50.6906 37.1935L53.0177 34.8664L49.5034 31.3521Z" fill="white"/>
<path d="M47.8193 33.0362L47.1764 33.6791L50.6907 37.1934L51.3336 36.5505L47.8193 33.0362Z" fill="#D1D3D4"/>
<path d="M55.9025 43.5698L50.7895 38.4568C50.1469 37.8142 50.1469 36.7721 50.7895 36.1293L51.953 34.9655C52.5956 34.3227 53.6376 34.3227 54.2805 34.9655L59.3935 40.0785C60.0361 40.7214 60.0364 41.7632 59.3935 42.406L58.23 43.5695C57.5872 44.2126 56.5451 44.2126 55.9025 43.5698Z" fill="#EF5A9D"/>
<path d="M56.9785 42.4938L51.8655 37.3808C51.2229 36.7383 51.2229 35.6962 51.8655 35.0533L51.9576 34.9612C51.956 34.9628 51.9546 34.9642 51.953 34.9656L50.7895 36.1293C50.1469 36.7719 50.1469 37.814 50.7895 38.4568L55.9025 43.5698C56.5454 44.2127 57.5874 44.2124 58.23 43.5698L59.3014 42.4985C58.6582 43.1364 57.6197 43.135 56.9785 42.4938Z" fill="#E43D91"/>
<path d="M41.5175 14.3107C35.2307 14.3107 30.1341 19.4073 30.1341 25.6941C30.1341 31.981 35.2307 37.0776 41.5175 37.0776C47.8044 37.0776 52.901 31.981 52.901 25.6941C52.901 19.4073 47.8044 14.3107 41.5175 14.3107ZM41.5175 34.1456C36.8497 34.1456 33.0659 30.3615 33.0659 25.6939C33.0659 21.026 36.85 17.2422 41.5175 17.2422C46.1851 17.2422 49.9692 21.0263 49.9692 25.6939C49.9692 30.3617 46.1851 34.1456 41.5175 34.1456Z" fill="white"/>
<path d="M41.5175 15.9554C36.139 15.9554 31.7791 20.3154 31.7791 25.6939C31.7791 31.0724 36.139 35.4324 41.5175 35.4324C46.896 35.4324 51.256 31.0724 51.256 25.6939C51.256 20.3154 46.896 15.9554 41.5175 15.9554ZM41.5175 34.1456C36.8497 34.1456 33.0658 30.3615 33.0658 25.6939C33.0658 21.0261 36.85 17.2422 41.5175 17.2422C46.1851 17.2422 49.9692 21.0263 49.9692 25.6939C49.9692 30.3618 46.1851 34.1456 41.5175 34.1456Z" fill="#D1D3D4"/>
<path d="M41.5175 34.1455C46.1853 34.1455 49.9692 30.3616 49.9692 25.6939C49.9692 21.0261 46.1853 17.2422 41.5175 17.2422C36.8498 17.2422 33.0659 21.0261 33.0659 25.6939C33.0659 30.3616 36.8498 34.1455 41.5175 34.1455Z" fill="#EF5A9D"/>
<path d="M49.9684 25.695C49.9684 30.3626 46.184 34.1469 41.5164 34.1469C38.0082 34.1469 35.0004 32.0114 33.7235 28.968C33.636 28.763 33.5594 28.5552 33.4883 28.3446C33.409 28.104 33.3407 27.8606 33.2832 27.6118C33.141 26.9966 33.0645 26.354 33.0645 25.695C33.0645 25.5528 33.0672 25.4106 33.0754 25.2712C33.0891 24.9759 33.1192 24.6833 33.1657 24.3989C33.2121 24.0762 33.2805 23.7591 33.3653 23.4501C34.3496 19.8708 37.6254 17.243 41.5164 17.243C46.184 17.243 49.9684 21.0274 49.9684 25.695Z" fill="#136DA0"/>
<path d="M46.8485 25.0306C46.8485 25.1345 46.8266 25.2384 46.7774 25.3341C46.7747 25.3341 46.7747 25.3341 46.7747 25.3368C46.7446 25.4025 46.7008 25.4626 46.6462 25.5146L45.9735 26.1735L44.4094 27.7103L43.8762 28.2325L43.4387 28.6591L42.17 29.9032L41.4126 30.647C41.1555 30.8985 40.7399 30.904 40.4774 30.6552L39.7801 29.9989L37.0047 27.3985L36.5126 26.9364L36.1188 27.2235L33.7235 28.9681C33.636 28.763 33.5594 28.5552 33.4883 28.3446C33.409 28.104 33.3407 27.8607 33.2833 27.6118L35.6239 25.9028L35.6266 25.9001L35.6676 25.8728L36.1598 25.5118C36.4223 25.3177 36.7887 25.3396 37.0266 25.5638L37.6965 26.1927L37.9563 26.436L40.4829 28.8067L40.9286 29.2251L41.3852 28.7767L42.4188 27.7622L42.8563 27.3357L43.3895 26.8134L45.1258 25.1099L45.3337 24.9048L45.7001 24.5466C45.9653 24.2868 46.3946 24.2896 46.6571 24.5575C46.6817 24.5821 46.7036 24.6067 46.72 24.6341C46.7419 24.6642 46.761 24.6942 46.7774 24.7271C46.7883 24.7517 46.7993 24.7763 46.8075 24.8009C46.8129 24.8146 46.8184 24.8255 46.8212 24.8392C46.8239 24.8446 46.8239 24.8501 46.8239 24.8528C46.8321 24.8775 46.8376 24.9021 46.8403 24.9267C46.8458 24.9595 46.8485 24.995 46.8485 25.0306Z" fill="#FEDE3A"/>
<path d="M46.8485 25.0305C46.8485 25.1344 46.8266 25.2383 46.7774 25.334C46.7747 25.334 46.7747 25.334 46.7747 25.3368C46.7446 25.4024 46.7008 25.4625 46.6462 25.5145L45.9735 26.1735L44.4094 27.7102L43.8762 28.2325L43.4387 28.659L42.17 29.9032L41.4126 30.6469C41.1555 30.8985 40.7399 30.904 40.4774 30.6551L39.7801 29.9989L37.0047 27.3985L36.5126 26.9364L36.1188 27.2235L33.7235 28.968C33.636 28.7629 33.5594 28.5551 33.4883 28.3446L35.695 26.7368L36.1215 26.425L36.5126 26.1407L37.002 26.6L37.5626 27.1278L39.9169 29.3344L40.4774 29.8622C40.7399 30.1083 41.1555 30.1055 41.4126 29.8512L41.995 29.2797L43.0122 28.2844L43.4469 27.8551L43.9801 27.3329L45.4704 25.8727L45.979 25.3751L46.6462 24.7188C46.6735 24.6915 46.6981 24.6641 46.72 24.634C46.7419 24.6641 46.761 24.6942 46.7774 24.727C46.7883 24.7516 46.7993 24.7762 46.8075 24.8008C46.8129 24.8145 46.8184 24.8254 46.8212 24.8391C46.8239 24.8446 46.8239 24.85 46.8239 24.8528C46.8321 24.8774 46.8376 24.902 46.8403 24.9266C46.8458 24.9594 46.8485 24.995 46.8485 25.0305Z" fill="#F7CB15"/>
<path d="M46.8485 30.1684C46.8485 30.245 46.8348 30.3243 46.8075 30.3981C46.7801 30.472 46.7364 30.5431 46.6817 30.6087C46.668 30.6251 46.6516 30.6415 46.6379 30.6552C46.5094 30.7782 46.3426 30.8384 46.1731 30.8384C46.0145 30.8384 45.8559 30.7837 45.7274 30.6716L45.134 30.1493L43.4387 28.6591L43.0122 28.2845L42.4188 27.7622L37.2153 23.1876L36.7778 22.802L36.2555 23.1493L33.0754 25.2712C33.0891 24.9759 33.1192 24.6833 33.1657 24.3989C33.2122 24.0763 33.2805 23.7591 33.3653 23.4501L35.5856 21.9708L35.7387 21.8669L36.4579 21.3884C36.7149 21.2188 37.0512 21.2407 37.2809 21.4431L37.7977 21.897L37.9754 22.0528L43.3895 26.8134L43.9801 27.3329L44.4094 27.7102L46.0336 29.1376L46.6215 29.6544C46.6571 29.6845 46.6872 29.72 46.7145 29.7556C46.7309 29.7774 46.7473 29.7993 46.7583 29.8239C46.7692 29.8431 46.7801 29.8622 46.7883 29.8786C46.7911 29.8868 46.7965 29.8977 46.7993 29.9059C46.8075 29.9224 46.8129 29.9388 46.8157 29.9552C46.8239 29.9798 46.8321 30.0016 46.8348 30.0263C46.8403 30.0481 46.843 30.07 46.8457 30.0919C46.8485 30.1165 46.8485 30.1411 46.8485 30.1684Z" fill="#EF5A9D"/>
<path d="M46.8485 30.1684C46.8485 30.2449 46.8375 30.3242 46.8075 30.3981C46.7801 30.4719 46.7364 30.543 46.6817 30.6086C46.668 30.625 46.6516 30.6414 46.6379 30.6551C46.5094 30.7782 46.3426 30.8383 46.1731 30.8383C46.0145 30.8383 45.8559 30.7836 45.7274 30.6715L45.134 30.1492L43.4387 28.659L43.0122 28.2844L42.4188 27.7621L37.2153 23.1875L36.7778 22.802L36.2555 23.1492L33.0754 25.2711C33.0891 24.9758 33.1192 24.6832 33.1657 24.3989L35.7469 22.6789L36.2418 22.3481H36.2446L36.7778 21.9899L37.2262 22.3836L37.7157 22.8157L42.8563 27.3356L43.4469 27.8551L43.8762 28.2324L45.3829 29.5559L45.7274 29.8594C45.8559 29.9715 46.0145 30.0262 46.1731 30.0262C46.3618 30.0262 46.5477 29.9496 46.6817 29.7965C46.6926 29.7828 46.7036 29.7692 46.7145 29.7555C46.7309 29.7774 46.7473 29.7992 46.7583 29.8239C46.7692 29.843 46.7801 29.8621 46.7883 29.8785C46.7911 29.8867 46.7965 29.8977 46.7993 29.9059C46.8075 29.9223 46.8129 29.9387 46.8157 29.9551C46.8239 29.9797 46.8321 30.0016 46.8348 30.0262C46.8403 30.0481 46.843 30.0699 46.8457 30.0918C46.8485 30.1164 46.8485 30.141 46.8485 30.1684Z" fill="#E43D91"/>
<path d="M36.7772 23.271C37.4385 23.271 37.9746 22.7349 37.9746 22.0736C37.9746 21.4123 37.4385 20.8762 36.7772 20.8762C36.116 20.8762 35.5799 21.4123 35.5799 22.0736C35.5799 22.7349 36.116 23.271 36.7772 23.271Z" fill="white"/>
<path d="M36.7772 22.472C36.2561 22.472 35.8128 22.1389 35.6482 21.6741C35.6039 21.799 35.5799 21.9336 35.5799 22.0736C35.5799 22.7347 36.1161 23.2709 36.7772 23.2709C37.4384 23.2709 37.9746 22.7347 37.9746 22.0736C37.9746 21.9336 37.9506 21.799 37.9063 21.6741C37.7419 22.1389 37.2984 22.472 36.7772 22.472Z" fill="#E6E7E8"/>
<path d="M36.7772 27.4217C37.4385 27.4217 37.9746 26.8857 37.9746 26.2244C37.9746 25.5631 37.4385 25.027 36.7772 25.027C36.116 25.027 35.5799 25.5631 35.5799 26.2244C35.5799 26.8857 36.116 27.4217 36.7772 27.4217Z" fill="white"/>
<path d="M36.7772 26.6227C36.2561 26.6227 35.8128 26.2897 35.6482 25.8248C35.6039 25.9498 35.5799 26.0843 35.5799 26.2243C35.5799 26.8855 36.1161 27.4217 36.7772 27.4217C37.4384 27.4217 37.9746 26.8855 37.9746 26.2243C37.9746 26.0843 37.9506 25.9498 37.9063 25.8248C37.7419 26.2897 37.2984 26.6227 36.7772 26.6227Z" fill="#E6E7E8"/>
<path d="M40.9731 31.0986C41.6344 31.0986 42.1705 30.5625 42.1705 29.9012C42.1705 29.2399 41.6344 28.7039 40.9731 28.7039C40.3118 28.7039 39.7758 29.2399 39.7758 29.9012C39.7758 30.5625 40.3118 31.0986 40.9731 31.0986Z" fill="white"/>
<path d="M40.9731 30.2996C40.452 30.2996 40.0087 29.9666 39.8441 29.5017C39.7998 29.6267 39.7758 29.7612 39.7758 29.9012C39.7758 30.5624 40.312 31.0986 40.9731 31.0986C41.6343 31.0986 42.1705 30.5624 42.1705 29.9012C42.1705 29.7612 42.1465 29.6267 42.1022 29.5017C41.9378 29.9666 41.4943 30.2996 40.9731 30.2996Z" fill="#E6E7E8"/>
<path d="M46.3197 31.4977C46.981 31.4977 47.517 30.9616 47.517 30.3003C47.517 29.639 46.981 29.1029 46.3197 29.1029C45.6584 29.1029 45.1223 29.639 45.1223 30.3003C45.1223 30.9616 45.6584 31.4977 46.3197 31.4977Z" fill="white"/>
<path d="M46.3197 30.6986C45.7985 30.6986 45.3553 30.3656 45.1906 29.9008C45.1463 30.0257 45.1223 30.1602 45.1223 30.3002C45.1223 30.9614 45.6585 31.4976 46.3197 31.4976C46.9808 31.4976 47.517 30.9614 47.517 30.3002C47.517 30.1602 47.493 30.0257 47.4487 29.9008C47.2841 30.3656 46.8408 30.6986 46.3197 30.6986Z" fill="#E6E7E8"/>
<path d="M46.3197 26.2244C46.981 26.2244 47.517 25.6883 47.517 25.027C47.517 24.3657 46.981 23.8296 46.3197 23.8296C45.6584 23.8296 45.1223 24.3657 45.1223 25.027C45.1223 25.6883 45.6584 26.2244 46.3197 26.2244Z" fill="white"/>
<path d="M46.3197 25.4253C45.7985 25.4253 45.3553 25.0923 45.1906 24.6274C45.1463 24.7524 45.1223 24.8869 45.1223 25.0269C45.1223 25.6881 45.6585 26.2243 46.3197 26.2243C46.9808 26.2243 47.517 25.6881 47.517 25.0269C47.517 24.8869 47.493 24.7524 47.4487 24.6274C47.2841 25.0923 46.8408 25.4253 46.3197 25.4253Z" fill="#E6E7E8"/>
<path d="M21.5427 35.9005C25.2969 35.9005 28.3403 32.8571 28.3403 29.1028C28.3403 25.3486 25.2969 22.3052 21.5427 22.3052C17.7884 22.3052 14.745 25.3486 14.745 29.1028C14.745 32.8571 17.7884 35.9005 21.5427 35.9005Z" fill="#FEDE3A"/>
<path d="M24.6743 25.7007C24.6391 25.5804 24.5289 25.4978 24.4036 25.4978H23.7641H22.9131H22.0622H21.0231H20.1722H19.3213H18.6817C18.5565 25.4978 18.446 25.5804 18.411 25.7007L17.9059 27.4291V28.6834C17.9059 28.9524 18.111 29.1709 18.373 29.1977V33.1964C18.373 33.3523 18.4993 33.4786 18.6552 33.4786H24.4299C24.5857 33.4786 24.7121 33.3523 24.7121 33.1964V29.1977C24.974 29.1712 25.1791 28.9524 25.1791 28.6834V27.4291L24.6743 25.7007Z" fill="#E7AD27"/>
<path d="M24.4299 32.9318H18.6554C18.4996 32.9318 18.3733 32.8055 18.3733 32.6496V28.0734H24.7121V32.6496C24.7121 32.8055 24.5858 32.9318 24.4299 32.9318Z" fill="#D1D3D4"/>
<path d="M24.4299 32.3674H18.6554C18.4996 32.3674 18.3733 32.241 18.3733 32.0852V27.5089H24.7121V32.0852C24.7121 32.241 24.5858 32.3674 24.4299 32.3674Z" fill="white"/>
<path d="M18.3733 29.0295C18.3905 29.0311 18.408 29.0322 18.4258 29.0322C18.7126 29.0322 18.9453 28.7995 18.9453 28.5127C18.9453 28.7995 19.178 29.0322 19.4648 29.0322C19.7517 29.0322 19.9844 28.7995 19.9844 28.5127C19.9844 28.7995 20.2171 29.0322 20.5039 29.0322C20.7907 29.0322 21.0234 28.7995 21.0234 28.5127C21.0234 28.7995 21.2561 29.0322 21.5429 29.0322C21.8298 29.0322 22.0625 28.7995 22.0625 28.5127C22.0625 28.7995 22.2952 29.0322 22.582 29.0322C22.8688 29.0322 23.1015 28.7995 23.1015 28.5127C23.1015 28.7995 23.3342 29.0322 23.6211 29.0322C23.9079 29.0322 24.1406 28.7995 24.1406 28.5127C24.1406 28.7995 24.3733 29.0322 24.6601 29.0322C24.6779 29.0322 24.6954 29.0314 24.7126 29.0295V27.5092H18.3733V29.0295Z" fill="#D1D3D4"/>
<path d="M18.4258 28.656C18.1389 28.656 17.9062 28.4233 17.9062 28.1365V26.8822H18.9453V28.1365C18.9453 28.4236 18.7126 28.656 18.4258 28.656Z" fill="#E43C90"/>
<path d="M19.4648 28.656C19.178 28.656 18.9453 28.4233 18.9453 28.1365V26.8822H19.9843V28.1365C19.9841 28.4236 19.7516 28.656 19.4648 28.656Z" fill="#A72973"/>
<path d="M20.5036 28.656C20.2168 28.656 19.9841 28.4233 19.9841 28.1365V26.8822H21.0231V28.1365C21.0231 28.4236 20.7907 28.656 20.5036 28.656Z" fill="#E43C90"/>
<path d="M21.5427 28.656C21.2558 28.656 21.0231 28.4233 21.0231 28.1365V26.8822H22.0622V28.1365C22.0622 28.4236 21.8295 28.656 21.5427 28.656Z" fill="#A72973"/>
<path d="M22.5817 28.656C22.2949 28.656 22.0622 28.4233 22.0622 28.1365V26.8822H23.1013V28.1365C23.1013 28.4236 22.8686 28.656 22.5817 28.656Z" fill="#E43C90"/>
<path d="M23.6208 28.656C23.334 28.656 23.1013 28.4233 23.1013 28.1365V26.8822H24.1403V28.1365C24.14 28.4236 23.9076 28.656 23.6208 28.656Z" fill="#A72973"/>
<path d="M24.6596 28.656C24.3727 28.656 24.14 28.4233 24.14 28.1365V26.8822H25.1791V28.1365C25.1791 28.4236 24.9467 28.656 24.6596 28.656Z" fill="#E43C90"/>
<path d="M19.3213 24.9509H18.682C18.5567 24.9509 18.4463 25.0335 18.4113 25.1538L17.9062 26.8822H18.9453L19.3213 24.9509Z" fill="#EE5A9C"/>
<path d="M20.1722 24.9509H19.3213L18.9453 26.8822H19.9841L20.1722 24.9509Z" fill="#E43D91"/>
<path d="M21.0231 24.9509H20.1722L19.9841 26.8822H21.0231V24.9509Z" fill="#EE5A9C"/>
<path d="M22.0622 24.9509H21.0231V26.8822H22.0622V24.9509Z" fill="#E43D91"/>
<path d="M22.9131 24.9509H22.0622V26.8822H23.1013L22.9131 24.9509Z" fill="#EE5A9C"/>
<path d="M23.7641 24.9509H22.9131L23.1013 26.8822H24.1401L23.7641 24.9509Z" fill="#E43D91"/>
<path d="M24.4034 24.9509H23.7641L24.1403 26.8822H25.1794L24.6743 25.1538C24.6391 25.0338 24.5289 24.9509 24.4034 24.9509Z" fill="#EE5A9C"/>
<path d="M20.596 29.2078H19.1668C19.0109 29.2078 18.8846 29.3341 18.8846 29.49V32.3676H20.8782V29.49C20.8782 29.3341 20.7519 29.2078 20.596 29.2078Z" fill="#EE5A9C"/>
<path d="M20.5709 29.3967H19.1917C19.1214 29.3967 19.0642 29.4539 19.0642 29.5241V32.1732H20.6983V29.5241C20.6983 29.4539 20.6414 29.3967 20.5709 29.3967Z" fill="#E43C90"/>
<path d="M23.9188 29.2078H21.687C21.5312 29.2078 21.4048 29.3341 21.4048 29.49V30.5558C21.4048 30.7117 21.5312 30.838 21.687 30.838H23.9188C24.0747 30.838 24.201 30.7117 24.201 30.5558V29.49C24.2007 29.3341 24.0744 29.2078 23.9188 29.2078Z" fill="#EE5A9C"/>
<path d="M23.9188 29.2078H21.687C21.5312 29.2078 21.4048 29.3341 21.4048 29.49V29.7907C21.4048 29.6349 21.5312 29.5085 21.687 29.5085H23.9188C24.0747 29.5085 24.201 29.6349 24.201 29.7907V29.49C24.2007 29.3341 24.0744 29.2078 23.9188 29.2078Z" fill="#E43C90"/>
<path d="M20.6983 30.6058H19.0642V31.0824H20.6983V30.6058Z" fill="#EE5A9C"/>
<path d="M20.6236 30.8377C20.6236 30.9359 20.5441 31.0152 20.4462 31.0152C20.348 31.0152 20.2687 30.9356 20.2687 30.8377C20.2687 30.7396 20.3483 30.6603 20.4462 30.6603C20.5441 30.6603 20.6236 30.7396 20.6236 30.8377Z" fill="white"/>
<path d="M20.4459 30.9029C20.3677 30.9029 20.3034 30.8518 20.2796 30.7815C20.2736 30.7993 20.2684 30.8179 20.2684 30.8375C20.2684 30.9357 20.348 31.015 20.4459 31.015C20.5441 31.015 20.6234 30.9354 20.6234 30.8375C20.6234 30.8176 20.6182 30.7993 20.6121 30.7815C20.5884 30.8518 20.5241 30.9029 20.4459 30.9029Z" fill="#E6E7E8"/>
<defs>
<filter id="filter0_d_15_1999" x="0" y="0" width="73.625" height="73.625" filterUnits="userSpaceOnUse" color-interpolation-filters="sRGB">
<feFlood flood-opacity="0" result="BackgroundImageFix"/>
<feColorMatrix in="SourceAlpha" type="matrix" values="0 0 0 0 0 0 0 0 0 0 0 0 0 0 0 0 0 0 127 0" result="hardAlpha"/>
<feOffset dy="4"/>
<feGaussianBlur stdDeviation="2"/>
<feComposite in2="hardAlpha" operator="out"/>
<feColorMatrix type="matrix" values="0 0 0 0 0 0 0 0 0 0 0 0 0 0 0 0 0 0 0.25 0"/>
<feBlend mode="normal" in2="BackgroundImageFix" result="effect1_dropShadow_15_1999"/>
<feBlend mode="normal" in="SourceGraphic" in2="effect1_dropShadow_15_1999" result="shape"/>
</filter>
</defs>
</svg>
