<svg width="70" height="70" viewBox="0 0 70 70" fill="none" xmlns="http://www.w3.org/2000/svg">
<g filter="url(#filter0_d_15_1297)">
<rect width="70" height="70" rx="35" fill="#A9A7F3"/>
<rect x="0.5" y="0.5" width="69" height="69" rx="34.5" stroke="#2359A9"/>
</g>
<path d="M61.5234 40.4119H52.4335C52.2689 40.4119 52.1358 40.5453 52.1358 40.7096V46.3843H61.5234V40.4119Z" fill="#EBE7F2"/>
<path d="M8.47656 40.4119H17.5664C17.7311 40.4119 17.8642 40.5453 17.8642 40.7096V46.3843H8.47656V40.4119Z" fill="#EBE7F2"/>
<path d="M40.6812 31.7636H38.6627C41.3268 30.3912 43.1216 27.5688 43.0041 24.3398C42.8545 20.2297 39.4866 16.8271 35.3782 16.6379C30.7825 16.4265 26.9902 20.0897 26.9902 24.6386C26.9902 27.7424 28.7555 30.4339 31.337 31.7636H29.3185C24.6378 31.7636 20.8433 35.5581 20.8433 40.2388V52.3045C20.8433 52.8935 21.3207 53.3709 21.9097 53.3709H48.0903C48.6793 53.3709 49.1567 52.8935 49.1567 52.3045V40.2388C49.1564 35.5581 45.3619 31.7636 40.6812 31.7636ZM41.2861 42.131L38.5287 44.1342C38.272 44.3209 38.1645 44.6515 38.2624 44.9537L39.3157 48.195C39.535 48.8701 38.7622 49.4318 38.1877 49.0145L35.4304 47.0113C35.1736 46.8245 34.8258 46.8245 34.5688 47.0113L31.8114 49.0145C31.237 49.4318 30.4642 48.8704 30.6835 48.195L31.7368 44.9537C31.835 44.6518 31.7275 44.3209 31.4705 44.1342L28.7131 42.131C28.1386 41.7137 28.4339 40.8051 29.1438 40.8051H32.5519C32.8694 40.8051 33.1507 40.6006 33.2489 40.2987L34.3022 37.0574C34.5215 36.3822 35.4769 36.3822 35.6962 37.0574L36.7495 40.2987C36.8476 40.6006 37.129 40.8051 37.4464 40.8051H40.8546C41.5652 40.8054 41.8605 41.7137 41.2861 42.131Z" fill="#2359A9"/>
<path d="M25.3373 30.2069C24.7759 30.0108 24.1943 29.8889 23.6015 29.8427C24.7721 28.6376 25.4505 27.0112 25.4505 25.2689C25.4505 21.6461 22.5031 18.6987 18.8806 18.6987C15.2581 18.6987 12.3104 21.6461 12.3104 25.2689C12.3104 27.011 12.9888 28.6374 14.1594 29.8427C10.602 30.1216 7.79297 33.1056 7.79297 36.7336V46.3845C7.79297 46.7622 8.09895 47.0681 8.47656 47.0681H17.8645C18.2421 47.0681 18.5481 46.7622 18.5481 46.3845C18.5481 46.0069 18.2421 45.701 17.8645 45.701H9.16016V36.7336C9.16016 33.676 11.6476 31.1885 14.7052 31.1885H16.1886C16.5041 31.1885 16.7787 30.9725 16.853 30.666C16.9274 30.3595 16.7822 30.0417 16.5017 29.8971C14.7599 28.9999 13.6776 27.2264 13.6776 25.2689C13.6776 22.4 16.0117 20.0659 18.8803 20.0659C21.7489 20.0659 24.083 22.4 24.083 25.2689C24.083 27.2264 23.001 29.0002 21.2592 29.8971C20.9787 30.0415 20.8335 30.3592 20.9079 30.666C20.9822 30.9728 21.2568 31.1885 21.5723 31.1885H23.0557C23.683 31.1885 24.299 31.2927 24.8866 31.4978C25.2435 31.6214 25.6329 31.4341 25.7575 31.0778C25.8817 30.7212 25.6938 30.3313 25.3373 30.2069Z" fill="#846F75"/>
<path d="M55.8406 29.8427C57.0109 28.6376 57.6896 27.0112 57.6896 25.2689C57.6896 21.6461 54.7424 18.6987 51.1197 18.6987C47.4969 18.6987 44.5498 21.6461 44.5498 25.2689C44.5498 27.011 45.2282 28.6374 46.3988 29.8427C45.8062 29.8889 45.2244 30.0108 44.663 30.2069C44.3064 30.3313 44.1186 30.7212 44.243 31.0778C44.3674 31.4344 44.7576 31.6214 45.1139 31.4978C45.7012 31.2927 46.3173 31.1885 46.9448 31.1885H48.4282C48.7438 31.1885 49.0183 30.9725 49.0927 30.666C49.1671 30.3595 49.0219 30.0417 48.7413 29.8971C46.9995 29.0002 45.9172 27.2264 45.9172 25.2689C45.9172 22.4 48.251 20.0659 51.1199 20.0659C53.9888 20.0659 56.3226 22.4 56.3226 25.2689C56.3226 27.2267 55.2406 29.0002 53.4988 29.8971C53.2183 30.0415 53.0731 30.3592 53.1475 30.666C53.2219 30.9728 53.4961 31.1885 53.8119 31.1885H55.2953C58.3529 31.1885 60.8404 33.6763 60.8404 36.7336V45.701H52.136C51.7584 45.701 51.4524 46.0069 51.4524 46.3845C51.4524 46.7622 51.7584 47.0681 52.136 47.0681H61.5234C61.901 47.0681 62.207 46.7622 62.207 46.3845V36.7336C62.207 33.1059 59.3977 30.1219 55.8406 29.8427Z" fill="#846F75"/>
<defs>
<filter id="filter0_d_15_1297" x="-4" y="0" width="78" height="78" filterUnits="userSpaceOnUse" color-interpolation-filters="sRGB">
<feFlood flood-opacity="0" result="BackgroundImageFix"/>
<feColorMatrix in="SourceAlpha" type="matrix" values="0 0 0 0 0 0 0 0 0 0 0 0 0 0 0 0 0 0 127 0" result="hardAlpha"/>
<feOffset dy="4"/>
<feGaussianBlur stdDeviation="2"/>
<feComposite in2="hardAlpha" operator="out"/>
<feColorMatrix type="matrix" values="0 0 0 0 0 0 0 0 0 0 0 0 0 0 0 0 0 0 0.25 0"/>
<feBlend mode="normal" in2="BackgroundImageFix" result="effect1_dropShadow_15_1297"/>
<feBlend mode="normal" in="SourceGraphic" in2="effect1_dropShadow_15_1297" result="shape"/>
</filter>
</defs>
</svg>
